<svg width="512" height="512" viewBox="0 0 512 512" fill="none" xmlns="http://www.w3.org/2000/svg">
<path d="M0 398.796V285.796H60H120V304.296C120 319.699 120.24 322.796 121.435 322.796C122.224 322.796 125.936 322.158 129.685 321.379C143.438 318.518 162.874 316.567 178 316.53C194.594 316.489 204.067 317.692 239 324.281C261.2 328.469 280.267 330.794 292.494 330.804C311.725 330.819 323.038 334.663 332.866 344.518C339.456 351.127 343.627 358.904 345.299 367.7C345.936 371.053 346.743 373.796 347.093 373.796C347.442 373.796 370.754 361.389 398.897 346.225C444.127 321.855 450.95 318.474 457.676 317.102C488.062 310.905 516.421 338.39 511.179 368.957C509.054 381.349 503.259 391.224 494.133 398.007C480.739 407.962 421.262 450.352 413.5 455.475C372.322 482.656 324.698 500.727 274.5 508.218C258.359 510.627 233.491 512.096 219.5 511.467C197.358 510.472 186.613 507.704 163.5 497.04C155.8 493.487 146.35 489.459 142.5 488.089C136.05 485.794 124.213 482.855 121.25 482.814C120.307 482.802 120 486.354 120 497.296V511.796H60H0V398.796ZM90 398.796V315.796H60H30V398.796V481.796H60H90V398.796ZM249.05 480.752C276.98 478.583 306.211 472.406 331.5 463.329C348.104 457.369 379.421 441.951 393.097 433.002C412.106 420.565 477.818 372.722 479.575 370.042C482.373 365.771 482.465 359.946 479.815 354.819C476.935 349.249 472.259 346.399 466.078 346.448C461.998 346.478 454.653 350.173 398.5 380.433C363.85 399.105 334.187 414.95 332.581 415.645C330.976 416.339 326.026 417.852 321.581 419.006C314.009 420.972 310.272 421.131 262.25 421.536L211 421.967V406.928V391.888L258.428 391.592C304.748 391.303 305.922 391.248 308.678 389.205C318.331 382.049 318.368 370.568 308.761 363.452C306.371 361.681 303.821 361.327 288.761 360.669C269.396 359.823 256.536 358.187 231 353.321C193.225 346.123 178.014 344.997 155.5 347.736C144.089 349.123 126.063 352.442 122.43 353.823L119.981 354.754L120.24 403.467L120.5 452.179L130.21 453.893C143.005 456.15 153.279 459.62 171.598 467.871C179.902 471.612 189.776 475.667 193.54 476.883C207.959 481.541 224.258 482.677 249.05 480.752ZM121 240.796V225.796H136H151V195.796V165.796H196H241V195.796V225.796H256H271V173.296V120.796H316H361V173.296V225.796H376.5H392V188.296V150.796H437H482V188.296V225.796H497H512V240.796V255.796H316.5H121V240.796ZM211 210.796V195.796H196H181V210.796V225.796H196H211V210.796ZM331 188.296V150.796H316H301V188.296V225.796H316H331V188.296ZM452 203.296V180.796H437H422V203.296V225.796H437H452V203.296ZM180.359 132.464C162.437 125.645 151 109.211 151 90.2801C151 67.7151 166.828 49.3347 189.494 45.5789C201.596 43.5735 214.531 47.4051 225.317 56.1908L231.101 60.9013L250.786 53.5016L270.471 46.1019L271.684 38.8574C275.083 18.5597 289.504 3.92872 309.486 0.505979C317.562 -0.87729 327.649 0.625791 335.63 4.40143C347.354 9.94773 357.688 22.9301 360.154 35.2113C361.162 40.2287 361.579 40.8595 364.386 41.6081C366.099 42.0648 374.475 44.1474 383 46.2361L398.5 50.0337L405.008 43.6023C412.568 36.1309 419.815 32.3363 429.79 30.6258C443.343 28.3016 458.395 33.2164 468.363 43.2216C490.665 65.6067 483.97 102.614 455.18 116.095C443.403 121.609 425.75 120.926 415 114.54C403.85 107.918 396.917 99.0689 393.484 87.0793L391.256 79.2964L372.958 74.6092L354.66 69.9219L348.944 75.854C340.646 84.4673 330.652 89.0537 318.962 89.6126C305.625 90.2502 294.986 86.5919 286.108 78.3151L281.5 74.0194L261.459 81.5084L241.419 88.9975L240.243 96.3878C237.836 111.514 228.826 123.808 215.216 130.534C208.094 134.054 207.014 134.292 197.072 134.539C188.009 134.763 185.623 134.467 180.359 132.464ZM202.971 103.311C212.086 98.5977 213.417 85.8814 205.52 78.948C196.085 70.6637 181 77.2871 181 89.7141C181 95.7863 185.07 102.288 190 104.09C193.007 105.189 200.171 104.759 202.971 103.311ZM445.175 87.3236C449.771 84.2003 452.553 77.5595 451.536 72.139C450.592 67.1076 444.649 61.1965 439.578 60.2451C430.693 58.5782 421.996 65.7281 422.004 74.6943C422.015 86.8363 435.264 94.0583 445.175 87.3236ZM323.759 57.8018C332.885 52.2378 333.561 38.8921 325.025 32.8139C318.646 28.2722 310.383 29.3183 305.099 35.3361C301.12 39.8682 300.286 44.6399 302.474 50.3668C305.742 58.925 316.026 62.517 323.759 57.8018Z" fill="black"/>
</svg>
