<svg xmlns="http://www.w3.org/2000/svg" xmlns:xlink="http://www.w3.org/1999/xlink" version="1.0" x="0px" y="0px" viewBox="0 0 90 112.5" enable-background="new 0 0 90 90" xml:space="preserve"><path fill="#000000" d="M85.938,75.261C85.979,75.041,86,74.822,86,74.606v-0.289C86,71.937,83.842,70,81.188,70H81V43.2  c0-16.417-12.958-30.502-29.223-32.851c0.011-0.87-0.127-2.421-1.137-3.581c-0.806-0.925-1.956-1.394-3.419-1.394  c-1.562,0-2.779,0.489-3.618,1.455c-1,1.15-1.138,2.65-1.13,3.488C26.092,12.556,13,26.699,13,43.2v26.805  c-2.389,0.054-5,1.808-5,4.312v0.289c0,0.095,0.004,0.189,0.014,0.285C6.46,75.646,5.5,77.052,5.5,78.663  C5.5,81.095,7.64,83,10.371,83h72.592c2.731,0,4.871-1.905,4.871-4.337C87.834,77.285,87.153,76.081,85.938,75.261z M45.12,8.135  c0.449-0.511,1.136-0.76,2.102-0.76c0.868,0,1.491,0.229,1.905,0.702c0.496,0.565,0.635,1.426,0.653,2.049  C48.861,10.049,47.936,10,47,10c-0.851,0-1.692,0.043-2.529,0.106C44.487,9.556,44.604,8.722,45.12,8.135z M15,43.2  C15,26.288,29.654,12,47,12s32,14.288,32,31.2V70H53.73c6.318-2.988,10.243-10.34,10.243-20.139  c0-11.971-9.285-21.611-16.973-21.611c-8.013,0-16.976,9.242-16.976,21.611c0,9.553,4.162,17.093,10.5,20.139H15V43.2z   M49.029,39.236c0.077,0.319,0.307,0.579,0.612,0.697l2.797,1.076l-3.1,2.742c-0.354,0.312-0.44,0.829-0.21,1.239l1.166,2.072  l-2.567,3.137c-0.351,0.428-0.287,1.058,0.14,1.407c0.187,0.152,0.41,0.227,0.633,0.227c0.29,0,0.577-0.125,0.774-0.366l3-3.666  c0.262-0.319,0.3-0.765,0.099-1.124l-1.104-1.963l3.728-3.298c0.262-0.231,0.384-0.583,0.322-0.927  c-0.062-0.344-0.299-0.63-0.625-0.755l-2.985-1.149l3.733-4.201c3.698,3.634,6.532,9.288,6.532,15.478  c0,9.762-4.63,19.611-14.973,19.611c-8.677,0-14.976-8.248-14.976-19.611c0-11.044,8.05-19.611,14.976-19.611  c2.271,0,4.705,1.044,6.942,2.81l-4.689,5.275C49.035,38.581,48.952,38.917,49.029,39.236z M10,74.317  C10,73.126,11.513,72,13.113,72H14h66h1.188C82.713,72,84,73.062,84,74.317v0.289c0,0.127-0.021,0.259-0.054,0.394H10.077  C10.03,74.852,10,74.719,10,74.606V74.317z M82.963,81H10.371C8.761,81,7.5,79.974,7.5,78.663c0-0.809,0.465-1.395,1.058-1.777  C8.692,76.953,8.839,77,9,77h75.923c0.463,0.344,0.911,0.876,0.911,1.663C85.834,79.974,84.573,81,82.963,81z"/><text x="0" y="105" fill="#000000" font-size="5px" font-weight="bold" font-family="'Helvetica Neue', Helvetica, Arial-Unicode, Arial, Sans-serif">Created by Oly Ozi</text><text x="0" y="110" fill="#000000" font-size="5px" font-weight="bold" font-family="'Helvetica Neue', Helvetica, Arial-Unicode, Arial, Sans-serif">from the Noun Project</text></svg>