<svg width="496" height="496" viewBox="0 0 496 496" fill="none" xmlns="http://www.w3.org/2000/svg">
<path d="M217.5 494.611C213.811 492.944 210.481 489.419 209.067 485.685C208.48 484.137 208 477.774 208 471.546V460.223L204.25 459.558C196.115 458.116 177.954 452.569 167.703 448.396C161.764 445.978 156.488 444 155.978 444C155.469 444 152.037 448.107 148.353 453.126C139.577 465.083 133.779 468.024 125.665 464.633C122.414 463.275 87.084 438.154 81.6635 433.346C77.6429 429.78 75.6883 424.564 76.4555 419.448C76.9096 416.42 79.0012 412.634 83.9558 405.874L90.8264 396.5L88.6632 393.861C87.4734 392.41 83.6087 387.685 80.0751 383.361C74.8403 376.956 64.7972 362.388 59.4588 353.457C58.4877 351.832 57.7363 351.927 48.3025 354.857C42.7392 356.586 36.2858 358 33.9617 358C28.5666 358 23.5021 354.912 21.0878 350.149C19.1325 346.292 3.63447 298.99 4.18057 298.546C4.72441 298.103 17.3427 294 18.1588 294C18.5825 294 22.3948 304.687 26.6305 317.75C30.8663 330.812 34.4978 341.703 34.7005 341.951C34.9035 342.2 39.4642 340.962 44.8359 339.201C56.0117 335.538 62.1239 335.168 66.5805 337.886C68.4373 339.018 72.1002 343.734 75.8009 349.756C82.7973 361.141 91.1735 372.573 99.3818 381.94C109.155 393.093 109.022 398.049 98.5626 412.387L92.0797 421.275L94.2898 422.982C101.65 428.669 130.194 448.995 130.787 448.972C131.179 448.957 134.38 444.914 137.901 439.988C144.579 430.644 149.476 427 155.356 427C156.855 427 162.9 428.977 168.791 431.393C181.423 436.574 195.529 441.138 206.093 443.461C221.087 446.758 223.943 450.797 223.978 468.75L224.001 480H248.001H272.001L272.002 468.25C272.005 450.158 274.575 446.856 291.686 442.958C302.486 440.497 316.178 435.964 329.396 430.472C343.554 424.589 347.08 425.78 357.835 440.079C361.319 444.71 364.772 448.443 365.508 448.374C367.108 448.223 403.001 422.173 403.001 421.163C403.001 420.777 400.081 416.453 396.513 411.555C385.961 397.07 386.222 394.046 399.399 378.217C408.017 367.865 412.386 361.691 422.381 345.738C428.985 335.198 434.931 333.813 450.836 339.112C456.006 340.834 460.544 341.839 461 341.362C461.453 340.888 465.072 330.375 469.044 318C473.016 305.625 476.616 295.112 477.044 294.639C477.653 293.966 490.379 297.329 491.828 298.546C492.008 298.697 488.281 310.514 483.546 324.806C476.936 344.759 474.306 351.422 472.219 353.513C466.77 358.97 461.669 359.28 448.05 354.982C442.852 353.342 438.273 352 437.875 352C437.476 352 435.042 355.487 432.464 359.75C425.95 370.522 419.757 379.079 411.79 388.314L404.981 396.206L408.348 400.853C416.894 412.65 418.067 414.534 418.983 417.936C420.14 422.23 418.939 427.537 415.953 431.334C413.709 434.187 376.486 461.452 371.039 464.233C362.887 468.395 356.152 465.072 346.953 452.35L340.337 443.201L332.825 446.513C324.012 450.4 303.174 457.135 294.251 458.98L288.001 460.273L287.978 471.387C287.952 484.262 286.336 489.198 280.866 493.099C277.523 495.484 277.309 495.502 249 495.734C226.751 495.916 219.842 495.67 217.5 494.611ZM228.5 414.836C210.167 412.769 188.692 406.357 171.898 397.938C142.096 382.996 113.22 354.231 98.317 324.637C94.8247 317.702 88 300.898 88 299.234C88 298.391 101.875 293.539 102.495 294.166C102.677 294.349 104.254 298.1 105.999 302.5C125.777 352.373 165.354 385.753 218.251 397.176C226.856 399.034 231.628 399.389 248 399.389C269.051 399.389 278.439 398.021 295.565 392.461C338.248 378.602 373.748 344.804 389.53 303C391.087 298.875 392.69 295.112 393.092 294.639C393.641 293.991 406.263 297.291 407.753 298.472C407.892 298.582 407.157 301.137 406.121 304.149C380.929 377.37 306.662 423.651 228.5 414.836ZM0 272V264H248H496V272V280H248H0V272ZM31.9999 186.455V124.909L34.4545 122.455L36.9091 120H70.4545H104V86.6911C104 61.5731 104.307 52.9846 105.25 51.7653C105.937 50.876 117.905 40.665 131.845 29.0742C151.589 12.658 157.812 7.99998 160 7.99998C162.188 7.99998 168.411 12.658 188.155 29.0742C202.095 40.665 214.062 50.876 214.75 51.7653C215.639 52.916 216 58.373 216 70.6911V88H248H280V46.4545V4.90907L282.455 2.45454L284.909 0H336H387.091L389.545 2.45454L392 4.90907V66.4545V128H425.545H459.091L461.545 130.455L464 132.909V190.455V248H456H448V196V144H420H392V196V248H384H376V132V16H336H296V132V248H288H280V176V104H248H216V176V248H208H200L199.973 153.75L199.947 59.5L180.735 43.5357C170.169 34.7553 160.839 27.5714 160.002 27.5714C159.165 27.5714 149.836 34.7553 139.269 43.5357L120.057 59.5L120.031 153.75L120.005 248H112.004H104.004V192V136H76.0045H48.0045V192V248H40.0044H32.0044L31.9999 186.455ZM312 128V120H320H328V128V136H320H312V128ZM344 128V120H352H360V128V136H352H344V128ZM136 120V112H160H184V120V128H160H136V120ZM312 88V80H320H328V88V96H320H312V88ZM344 88V80H352H360V88V96H352H344V88ZM136 80V72H160H184V80V88H160H136V80ZM312 48V40H320H328V48V56H320H312V48ZM344 48V40H352H360V48V56H352H344V48Z" fill="black"/>
</svg>
