<svg width="482" height="484" viewBox="0 0 482 484" fill="none" xmlns="http://www.w3.org/2000/svg">
<path d="M408.512 471.256C400.118 458.688 398.988 455.76 401.046 451.914C401.662 450.763 414.806 443.601 433.046 434.477L464 418.994V338.613V258.233L461.49 257.753C459.343 257.343 458.352 258.157 454.632 263.387C410.75 325.073 381.62 389.844 363.454 466.12L359.733 481.741L353.117 480.253C349.478 479.435 345.99 478.481 345.367 478.133C344.576 477.691 345.976 470.57 350.016 454.5C360.621 412.306 368.961 388.515 388.58 344.488C388.828 343.931 386.463 340.419 383.323 336.684L377.615 329.892L360.671 346.836L343.727 363.78L339.892 420.64C337.783 451.913 336.044 478.062 336.029 478.75C335.995 480.175 321.48 480.586 320.615 479.186C320.338 478.738 321.626 455.676 323.476 427.936C325.326 400.196 326.989 374.823 327.17 371.552L327.5 365.603L322.757 364.128C320.148 363.317 317.853 362.844 317.657 363.076C317.461 363.309 310.65 390.174 302.521 422.776C290.013 472.939 287.492 481.981 286.12 481.586C285.229 481.329 282.475 480.615 280 480C277.525 479.384 274.771 478.671 273.879 478.414C272.483 478.012 274.449 469.185 288.012 414.953L303.767 351.959L302.26 345.979C301.432 342.691 300.464 340 300.109 340C299.302 340 285.171 362.194 277.545 375.44C262.517 401.541 247.448 435.038 237.321 464.854C234.211 474.009 231.56 481.644 231.429 481.821C230.796 482.676 217 477.752 217 476.67C217 474.654 226.336 447.497 231.478 434.555C242.444 406.956 256.832 378.219 272.277 353.073C274.722 349.093 275.399 348.762 259.802 359.166C231.138 378.287 213.422 397.935 199.99 425.5C191.837 442.231 186.696 458.901 184.502 475.719L183.821 480.937L179.161 480.415C167.354 479.091 167.923 479.398 168.573 474.704C174.934 428.726 196.519 389.376 231.324 360.309C236.177 356.256 263.515 337.351 292.074 318.297L344 283.654V273.827V264H306.455H268.909L266.455 261.545L264 259.091V209.545V160H246.646C229.406 160 229.274 159.985 226.526 157.436C224.287 155.361 223.86 154.264 224.285 151.686C224.575 149.934 235.858 128.004 249.359 102.954C262.86 77.9043 274.176 56.7061 274.505 55.8472C274.927 54.7491 274.14 53.8864 271.857 52.9404C266.934 50.9012 262.168 46.247 259.211 40.59C257.02 36.3984 256.55 34.1761 256.548 28C256.545 16.5637 261.377 8.53559 271.5 3.15668L276.5 0.499892L353.741 0.22584C438.935 -0.0761446 437.567 -0.160019 450.9 6.17772C455.401 8.31727 459.762 11.5708 464.611 16.4074C475.788 27.5556 481.34 40.605 481.241 55.4998C481.211 59.8998 477.321 94.1897 472.594 131.7C464.24 197.995 464 200.486 464 220.898V241.896L470.04 243.591C481 246.666 480 237.168 480 338.2C480 397.466 479.659 426.768 478.955 428.085C478.342 429.23 465.906 436.043 448.911 444.544C428.771 454.619 420.132 459.424 420.631 460.275C421.026 460.949 423.081 464.078 425.198 467.23C427.315 470.381 429.295 473.605 429.598 474.393C429.96 475.337 428.097 477.218 424.128 479.913C420.818 482.161 417.865 484 417.567 484C417.268 484 413.193 478.265 408.512 471.256ZM362.781 312.738C360.524 310.043 356.817 305.782 354.542 303.269L350.406 298.701L331.953 310.99C321.804 317.749 313.414 323.34 313.309 323.414C313.204 323.488 314.353 328.487 315.862 334.524L318.606 345.5L326.053 348.161L333.5 350.822L350.192 334.23L366.884 317.638L362.781 312.738ZM401.458 319.25C403.921 314.437 407.785 307.237 410.044 303.25L414.153 296H391.954C370.189 296 369.783 296.038 371.128 297.937C372.714 300.177 396.38 327.93 396.74 327.972C396.872 327.987 398.995 324.062 401.458 319.25ZM429.136 272.25C431.995 267.987 437.409 260.172 441.167 254.882L448 245.264V224.031V202.798L428 178.802C414.132 162.163 408 154.065 408 152.389C408 151.059 410.907 144.169 414.461 137.078L420.921 124.185L408.211 119.089C401.22 116.286 395.176 113.994 394.78 113.996C394.385 113.998 386.117 123.562 376.408 135.25C366.698 146.937 357.86 157.287 356.766 158.25C353.904 160.769 349.369 160.459 346.455 157.545L344 155.091V105.545V55.9999L318.25 56.0339L292.5 56.068L269.25 99.4347C256.463 123.287 246 143.071 246 143.4C246 143.73 252.546 143.999 260.546 143.999C274.656 143.999 275.164 144.073 277.545 146.453L280 148.908V198.453V247.999H314.242H348.484L371.241 225.258L393.997 202.518L399.739 208.26L405.481 214.001L382.74 236.758L360 259.515V269.757V279.999H391.969H423.939L429.136 272.25ZM290.455 109.545C288.907 107.998 288 105.948 288 104C288 102.052 288.907 100.002 290.455 98.4543C292.766 96.1434 293.558 95.9999 304 95.9999C314.442 95.9999 315.235 96.1434 317.545 98.4543C319.093 100.002 320 102.052 320 104C320 105.948 319.093 107.998 317.545 109.545C315.235 111.856 314.442 112 304 112C293.558 112 292.766 111.856 290.455 109.545ZM458.341 117.25L466.141 54.4998L464.488 47.2406C461.624 34.6593 453.602 24.984 441.226 19.1837L435.5 16.4999H357.27H279.039L275.77 19.7692C272.967 22.572 272.5 23.7375 272.5 27.9386C272.5 33.2805 275.175 37.3151 279.935 39.1515C281.305 39.6799 298.198 40.0618 318.548 40.0244C352.866 39.9613 354.849 40.0585 357.113 41.8899L359.5 43.8217L360 86.5942L360.5 129.367L372.872 114.433C386.957 97.4326 388.396 95.9999 391.384 95.9999C394.947 95.9999 436.348 112.93 438.25 115.165C439.212 116.296 440 118.303 440 119.624C440 120.945 436.801 128.412 432.892 136.216C426.446 149.083 425.91 150.606 427.142 152.55C429.063 155.582 449.391 179.954 450.02 179.979C450.307 179.99 454.051 151.762 458.341 117.25ZM2.45459 477.545L0 475.091V240V4.90896L2.45459 2.45448L4.90919 0H122.455H240V7.99989V16H128H16V240V464H84H152V472V480H78.4546H4.90919L2.45459 477.545ZM34.4546 389.545L32 387.091V344V300.909L34.4546 298.454C36.8191 296.09 37.4064 296 50.4546 296H64.0001V286.454C64.0001 277.653 64.1914 276.718 66.4547 274.455C68.8893 272.02 69.064 272 88.0001 272C106.936 272 107.111 272.019 109.546 274.455C111.809 276.718 112 277.653 112 286.454V296H120H128V278.454C128 261.159 128.034 260.874 130.455 258.455C132.819 256.09 133.406 256 146.455 256H160V242.454C160 229.406 160.09 228.819 162.455 226.454C164.889 224.02 165.064 224 184 224C202.936 224 203.111 224.019 205.545 226.454L208 228.909V292V355.091L205.545 357.545L203.091 360H125.546H48V368V376H116H184V384V392H110.455H36.9091L34.4546 389.545ZM64.0001 328V312H56.0001H48V328V344H56.0001H64.0001V328ZM96.0001 316V288H88.0001H80.0001V316V344H88.0001H96.0001V316ZM128 328V312H120H112V328V344H120H128V328ZM160 308V272H152H144V308V344H152H160V308ZM192 292V240H184H176V292V344H184H192V292ZM64.0001 184.113V176.227L59.7431 175.589C46.0333 173.533 34.4966 162.162 32.4807 148.719L31.773 144H39.7752H47.7774L48.4381 147.521C49.3137 152.189 54.296 157.709 58.87 159.079C60.9823 159.712 67.5269 160.037 74.2077 159.841C86.8165 159.472 88.9045 158.687 93.4382 152.615C96.3292 148.743 96.3292 139.257 93.4382 135.385C88.7446 129.098 87.0917 128.546 71.1777 127.949C59.0296 127.494 55.6677 127.023 51.6706 125.22C44.2059 121.853 39.6373 117.666 35.9324 110.795C32.8326 105.047 32.5375 103.761 32.5375 95.9999C32.5375 88.2372 32.8323 86.9533 35.9355 81.1985C37.8044 77.7327 40.6726 73.7703 42.3093 72.393C46.7746 68.6358 53.9834 65.275 59.2811 64.4806L64.0001 63.7728V55.8864V47.9998H72.0001H80.0001V55.8864V63.7728L84.7191 64.4806C98.1779 66.4988 109.377 77.8679 111.581 91.75L112.256 95.9999H104.239H96.2226L95.562 92.4785C94.6864 87.8111 89.7041 82.2911 85.1301 80.9207C83.0178 80.2879 76.4732 79.9625 69.7924 80.1583C59.9134 80.4478 57.7193 80.8137 55.3814 82.5616C50.1357 86.4834 48.5001 89.6777 48.5001 95.9999C48.5001 102.324 50.1376 105.52 55.3848 109.438C57.7946 111.237 60.0779 111.57 73.323 112.056C88.146 112.599 88.6469 112.691 94.7956 115.97C105.694 121.782 111.449 131.455 111.473 144C111.484 150.014 110.969 152.606 108.874 157.086C104.276 166.915 94.8491 174 84.2569 175.589L80.0001 176.227V184.113V192H72.0001H64.0001V184.113ZM128 184V176H160H192V184V192H160H128V184ZM128 144V136H168H208V144V152H168H128V144ZM128 104V96.0001H176H224V104V112H176H128V104ZM144 64.0001V55.9999H168H192V64.0001V72H168H144V64.0001ZM208 64.0001V55.9999H224H240V64.0001V72H224H208V64.0001Z" fill="black"/>
</svg>
