<svg width="638" height="639" viewBox="0 0 638 639" fill="none" xmlns="http://www.w3.org/2000/svg">
<path d="M350.603 636.272C308.156 628.801 270.711 599.198 254.951 560.653C252.374 554.35 250.321 550.995 249.059 551.025C247.994 551.052 237.053 553.487 224.745 556.439L202.368 561.807L200.88 570.635C196.815 594.762 179.635 612.327 156.595 615.914C117.537 621.995 85.5255 583.323 98.7154 545.992C103.434 532.636 115.649 519.997 129.088 514.565C139.131 510.506 159.415 510.57 168.577 514.689C178.036 518.942 187.011 526.313 192.143 534.045C194.684 537.873 197.153 541.011 197.631 541.019C198.109 541.027 209.183 538.476 222.241 535.351L245.983 529.669L245.051 520.064C243.28 501.821 247.225 478.569 255.319 459.551C259.262 450.283 270.608 432.307 275.05 428.286C276.49 426.983 277.668 425.116 277.668 424.138C277.668 423.159 269.154 413.007 258.748 401.578C248.341 390.148 239.155 380.046 238.333 379.128C237.106 377.758 235.722 378.261 230.603 381.939C227.173 384.403 219.108 388.886 212.68 391.902C182.596 406.016 147.547 407.663 116.715 396.411L106.925 392.838L97.5431 409.458C92.3833 418.599 88.1616 426.865 88.1616 427.828C88.1616 428.79 89.8635 431.208 91.9435 433.2C108.043 448.625 110.031 478.086 96.315 498C77.7883 524.9 38.3095 528.483 15.4695 505.336C-13.8224 475.651 0.903517 426.001 41.8648 416.342C48.1383 414.863 60.3877 415.158 66.3434 416.933C68.4882 417.572 70.2042 415.212 78.6134 400.057C87.9724 383.19 88.2869 382.366 85.9799 380.75C68.7144 368.657 55.2062 352.821 45.2329 332.981C36.5402 315.688 32.0578 296.557 32.0578 276.749C32.0578 250.361 39.4651 226.678 54.8868 203.758C61.4142 194.057 76.7242 178.793 86.6032 172.136C90.889 169.249 94.3954 166.431 94.3954 165.876C94.3954 165.32 88.0153 151.455 80.2174 135.065L66.0396 105.264L56.0221 105.698C27.8371 106.92 5.28602 88.5614 0.657273 60.6278C-4.99849 26.4963 26.7599 -5.01915 60.7729 0.972082C76.6636 3.7712 90.84 13.3186 98.4913 26.3747C110.233 46.4101 107.123 72.837 91.0625 89.4994L84.9888 95.8006L99.0966 125.459C106.856 141.771 113.601 155.504 114.086 155.976C114.57 156.449 119.736 155.413 125.564 153.674C140.206 149.306 167.427 148.22 182.915 151.384C220.943 159.155 249.56 179.866 270.832 215.013C271.958 216.874 278.626 214.343 330.456 192.388C382.75 170.236 388.754 167.405 388.239 165.142C387.923 163.752 386.686 158.407 385.491 153.265C382.502 140.405 382.413 115.809 385.31 103.549C386.506 98.491 387.242 94.1113 386.947 93.8161C386.652 93.5209 378.974 90.5095 369.885 87.1243C351.943 80.4416 352.778 80.4246 348.637 87.5558C346.09 91.9418 332.275 100.878 324.171 103.381C297.094 111.744 267.675 97.1665 258.223 70.7035C249.489 46.2512 261.484 16.9438 284.74 5.9131C316.765 -9.27723 352.833 8.62695 360.029 43.2868C360.8 47.0025 361.235 52.5121 360.995 55.5302L360.558 61.0176L368.671 64.0696C383.603 69.6864 393.91 73.4723 394.269 73.4723C394.465 73.4723 396.444 70.2463 398.668 66.3034C404.22 56.4607 415.73 41.5832 423.058 34.7771C451.424 8.43345 490.731 -4.19838 527.403 1.24464C603.281 12.5068 652.284 85.2884 633.621 159.004C624.336 195.677 599.685 225.711 565.152 242.423C539.877 254.654 509.454 258.125 482.794 251.82C480.07 251.176 477.567 250.924 477.231 251.26C476.895 251.596 465.05 283.965 450.909 323.191L425.197 394.511L432.783 398.773C444.398 405.298 457.685 415.705 465.617 424.49L472.785 432.428L484.629 424.747C491.143 420.523 505.267 411.332 516.015 404.323L535.557 391.579L533.782 385.678C526.871 362.717 539.324 335.502 561.519 325.054C583.085 314.903 607.037 319.133 622.886 335.89C655.705 370.591 629.377 427.784 581.982 424.747C570.79 424.03 560.654 420.432 552.687 414.349C549.423 411.857 546.275 410.336 545.396 410.827C541.21 413.167 487.525 448.07 486.084 449.39C484.71 450.648 484.95 451.966 487.469 456.997C495.18 472.397 498.821 489.419 498.903 510.459C499.039 545.104 487.591 573.754 463.695 598.576C434.046 629.373 391.666 643.5 350.603 636.272ZM397.356 613.81C407.377 611.192 418.19 606.564 427.583 600.873C435.772 595.912 435.728 596.437 429.098 582.658C423.858 571.766 415.415 563.536 403.869 558.066L395.486 554.096H371.798H348.11L339.782 558.041C325.901 564.617 316.98 574.457 311.267 589.494C308.477 596.837 308.526 596.902 322.551 604.373C340.513 613.941 355.09 617.268 375.538 616.465C383.081 616.169 392.899 614.974 397.356 613.81ZM159.542 593.376C185.481 583.672 187.451 547.829 162.724 535.507C136.697 522.537 107.581 549.711 119.428 575.914C126.844 592.315 143.268 599.465 159.542 593.376ZM295.644 571.799C300.489 561.506 315.326 546.527 326.011 541.141L333.835 537.197L329.484 531.499C322.247 522.022 319.59 513.523 319.59 499.862C319.59 485.657 322.513 476.869 330.477 467.129C348.39 445.222 378.831 440.799 402.018 456.733C409.966 462.195 417.654 471.841 421.146 480.732C423.417 486.516 424.006 490.459 424.006 499.862C424.006 513.517 421.349 522.021 414.123 531.484L409.784 537.168L416.973 540.645C427.189 545.586 443.247 561.726 447.968 571.799C449.96 576.05 451.975 579.557 452.446 579.591C452.917 579.625 456.368 575.025 460.116 569.368C472.018 551.402 476.837 536.826 477.945 515.446C480.159 472.739 456.168 432.977 416.985 414.414C402.271 407.443 390.339 404.855 372.421 404.749C355.087 404.647 342.665 407.169 328.194 413.73C304.144 424.635 282.817 446.913 273.384 470.985C263.156 497.084 263.566 527.961 274.471 552.859C277.632 560.076 290.042 579.719 291.359 579.591C291.715 579.557 293.643 576.05 295.644 571.799ZM384.44 529.163C386.592 528.266 390.593 525.51 393.33 523.038C412.361 505.844 403.043 473.339 377.838 468.997C357.745 465.535 340.09 479.954 340.045 499.862C340.023 510.64 344.861 519.303 355.348 527.251C361.623 532.007 375.432 532.915 384.44 529.163ZM63.1825 498.007C81.4896 491.548 89.848 470.638 80.9395 453.585C68.7765 430.303 36.6578 430.701 24.2025 454.289C20.4891 461.322 20.4768 474.795 24.1761 481.8C31.8907 496.405 48.3454 503.242 63.1825 498.007ZM305.591 402.107C316.99 394.951 332.402 388.764 346.82 385.555C358.16 383.031 386.324 383.084 396.733 385.648C400.847 386.662 404.596 387.107 405.064 386.638C405.531 386.168 417.131 354.646 430.841 316.589C444.551 278.532 456.131 246.463 456.575 245.325C457.128 243.905 456.576 243.001 454.814 242.441C453.402 241.993 447.094 238.243 440.796 234.108C427.588 225.435 412.758 210.951 405.204 199.346C402.32 194.915 399.234 190.352 398.347 189.205C396.881 187.311 391.417 189.386 338.759 211.829C298.608 228.942 280.922 237.057 281.231 238.226C281.477 239.154 282.793 245.244 284.157 251.758C287.442 267.452 286.817 292.178 282.74 307.862C278.257 325.104 268.125 344.639 255.82 359.763L252.645 363.665L273.337 386.257C284.718 398.682 294.215 408.849 294.442 408.849C294.668 408.849 299.686 405.815 305.591 402.107ZM595.703 402.152C602.707 399.649 608.582 394.478 612.524 387.348C615.563 381.849 616.141 379.396 616.12 372.07C616.086 359.434 610.143 349.731 598.707 343.634C590.86 339.45 578.206 339.845 569.715 344.539C547.016 357.086 547.709 389.077 570.929 400.648C578.204 404.273 588.09 404.874 595.703 402.152ZM180.162 380.692C191.563 378.349 204.616 373.128 214.448 366.978C220.85 362.974 221.487 362.193 220.803 359.195C216.705 341.238 199.196 324.341 180.672 320.465C171.365 318.518 143.801 318.738 135.975 320.822C126.383 323.376 117.556 328.678 110.529 336.109C104.015 342.996 96.3728 357.248 97.1182 361.118C98.0166 365.783 121.719 377.243 137.408 380.598C149.034 383.084 168.319 383.126 180.162 380.692ZM90.4762 326.032C95.7988 318.982 105.736 310.857 114.343 306.517C117.429 304.961 120.109 303.584 120.299 303.456C120.489 303.328 118.592 300.2 116.084 296.504C110.092 287.675 108.475 283.67 106.886 273.723C101.833 242.089 126.856 213.069 159.141 213.122C179.612 213.156 198.081 225.052 206.892 243.88C215.007 261.222 212.419 284.425 200.822 298.295C199.202 300.234 197.877 302.197 197.879 302.659C197.881 303.121 201.107 305.156 205.048 307.182C215.054 312.327 230.143 327.585 235.258 337.732L239.317 345.783L242.768 341.921C251.365 332.299 260.44 312.574 263.409 297.057C269.956 262.842 259.978 228.619 236.142 203.525C215.593 181.893 189.396 170.719 159.227 170.719C129.057 170.719 102.86 181.893 82.311 203.525C58.4746 228.619 48.4976 262.842 55.0439 297.057C57.9526 312.259 66.5521 331.173 75.2612 341.523L78.5445 345.425L82.1048 338.915C84.0629 335.334 87.8301 329.537 90.4762 326.032ZM168.807 296.235C182.062 291.347 190.417 279.695 190.368 266.163C190.288 243.984 170.298 229.409 148.774 235.836C140.926 238.179 131.267 248.248 128.798 256.66C126.328 265.077 126.324 267.121 128.765 275.338C133.612 291.662 153.318 301.945 168.807 296.235ZM536.379 230.561C546.608 227.945 563.869 220.231 569.617 215.707C572.686 213.292 572.843 212.729 571.659 208.424C569.533 200.695 565.736 194.33 559.002 187.21C545.96 173.42 536.578 170.205 509.564 170.268C492.43 170.308 489.392 170.639 482.759 173.193C473.488 176.763 466.575 181.411 460.443 188.199C455.258 193.938 448.476 207.153 448.474 211.52C448.472 217.38 475.884 229.973 495.227 232.997C505.775 234.646 524.81 233.52 536.379 230.561ZM447.752 171.311C453.98 165.124 460.534 159.966 464.925 157.795L472.025 154.283L467.109 147.081C459.757 136.31 458.084 130.769 458.059 117.109C458.032 102.868 460.927 94.1128 468.916 84.2646C484.524 65.0235 510.492 58.8759 532.944 69.1066C546.363 75.2209 558.365 90.3766 561.934 105.715C565.125 119.422 561.26 137.275 552.667 148.529L548.482 154.011L554.893 157.369C568.162 164.319 580.597 176.976 587.39 190.446L590.737 197.082L595.033 191.693C606.659 177.106 615.205 153.49 616.383 132.693C619.877 71.0213 566.872 18.0168 505.201 21.5102C437.8 25.3282 390.763 89.0269 407.363 154.004C411.018 168.313 419.402 184.883 427.606 194.014L430.053 196.737L433.867 189.027C436.416 183.874 441.021 177.998 447.752 171.311ZM523.279 145.683C544.344 136.147 548.425 108.86 531.118 93.2591C524.968 87.7158 518.572 85.417 509.564 85.5131C476.797 85.8627 466.717 130.409 496.093 145.048C504.342 149.159 515.047 149.409 523.279 145.683ZM65.0967 82.3649C77.0714 76.9062 84.4637 65.8681 84.3666 53.5911C84.265 40.7026 78.8506 31.4193 67.9073 25.37C59.416 20.6761 46.762 20.2811 38.9148 24.4649C27.4786 30.5623 21.5371 40.265 21.5017 52.9008C21.4828 60.2267 22.0586 62.68 25.0984 68.179C29.0399 75.3092 34.9146 80.4797 41.9193 82.9836C48.4393 85.3142 59.2606 85.0254 65.0967 82.3649ZM322.279 81.4782C345.786 69.7644 345.593 36.9404 321.944 24.4489C314.938 20.7485 301.466 20.7608 294.433 24.4753C270.845 36.9306 270.447 69.0493 293.729 81.2123C302.801 85.9513 313.112 86.0467 322.279 81.4782Z" fill="black"/>
</svg>
