<svg width="512" height="512" viewBox="0 0 512 512" fill="none" xmlns="http://www.w3.org/2000/svg">
<path d="M114.336 510.813C108.712 508.953 106.239 507.501 101.669 503.372C95.4844 497.784 92.5784 491.168 92.0428 481.455L91.5914 473.268L72.2935 461.705C61.6797 455.345 52.6772 450.141 52.2883 450.141C51.8993 450.141 48.6357 451.591 45.0358 453.363C39.5116 456.083 37.3743 456.585 31.3356 456.585C18.7548 456.585 8.32886 449.891 2.65681 438.172C-0.411906 431.831 -0.513571 419.52 2.44977 413.09C5.36821 406.758 10.2834 401.47 16.5262 397.947L21.8358 394.95L21.8207 371.295L21.8055 347.641L16.071 344.568C5.48958 338.898 -0.965538 326.922 0.118128 314.971C2.15643 292.493 25.7977 279.567 45.9051 289.937L52.1933 293.18L71.8995 281.411L91.6058 269.641L92.031 261.6C92.533 252.103 94.9927 246.22 100.954 240.259C107.549 233.663 112.822 231.638 123.337 231.66C131.139 231.677 133.018 232.036 137.46 234.363C148.159 239.967 155.969 253.86 154.49 264.655L153.895 268.995L174.007 281.22C192.41 292.406 194.299 293.331 196.228 292.103C203.372 287.558 206.405 286.67 214.836 286.655C221.829 286.643 224.21 287.071 228.259 289.064C234.257 292.016 240.004 297.6 242.961 303.349C246.006 309.271 246.689 321.058 244.387 327.988C242.321 334.208 235.611 341.922 229.398 345.217L224.836 347.638L224.863 371.639L224.889 395.641L229.021 397.549C238.819 402.072 244.923 411.529 245.625 423.268C246.217 433.186 244.193 439.417 238.22 446.061C227.867 457.576 211.174 460.179 198.643 452.232L194.198 449.413L174.24 461.515L154.282 473.616V480.706C154.282 493.19 147.465 503.805 135.981 509.204C130.431 511.812 119.758 512.606 114.336 510.813ZM128.915 490.435C131.839 488.708 134.836 483.75 134.836 480.641C134.836 479.707 134.153 477.505 133.319 475.748C128.195 464.949 111.836 468.514 111.836 480.429C111.836 485.324 113.161 487.759 117.149 490.191C121.082 492.589 125.127 492.673 128.915 490.435ZM107.821 453.391L112.807 450.641L112.822 426.576L112.837 402.511L109.381 400.863C104.034 398.313 97.9443 392.281 95.0886 386.704C93.1182 382.857 92.3872 379.675 92.0442 373.455L91.5929 365.268L72.2949 353.705C61.681 347.345 52.6306 342.141 52.1828 342.141C51.735 342.141 49.0002 343.378 46.1052 344.891L40.8417 347.641L40.8394 371.295L40.837 394.95L46.1465 397.947C56.7469 403.929 62.1452 412.944 62.4267 425.132L62.5998 432.624L81.9684 444.346C92.6212 450.793 101.674 456.085 102.087 456.105C102.499 456.123 105.078 454.903 107.821 453.391ZM163.933 444.391L183.608 432.641L184.043 424.141C184.359 417.954 185.082 414.473 186.698 411.349C189.592 405.756 195.473 399.94 200.652 397.549L204.784 395.641L204.773 371.641L204.761 347.641L199.484 344.587L194.208 341.533L174.244 353.561L154.281 365.589V372.692C154.281 384.921 147.232 396.143 136.586 400.863L132.836 402.526V426.736V450.945L135.586 451.945C137.099 452.494 139.236 453.649 140.336 454.511C141.436 455.372 142.769 456.092 143.297 456.109C143.826 456.128 153.112 450.853 163.933 444.391ZM36.2284 435.625C42.1458 432.817 44.3855 426.039 41.3413 420.152C39.2263 416.062 36.0285 414.141 31.3356 414.141C19.3268 414.141 15.5258 430.28 26.2842 435.589C30.1658 437.505 32.2501 437.514 36.2284 435.625ZM220.938 434.856C227.378 430.526 227.791 422.285 221.839 416.891C213.595 409.42 200.703 418.383 204.216 429.144C205.516 433.124 210.85 437.141 214.836 437.141C216.323 437.141 219.069 436.113 220.938 434.856ZM128.915 382.435C135.329 378.646 136.349 369.923 130.979 364.779C123.615 357.723 111.836 362.431 111.836 372.429C111.836 377.324 113.161 379.759 117.149 382.191C121.082 384.589 125.127 384.673 128.915 382.435ZM108.856 344.891C114.343 342.061 116.142 341.641 122.768 341.641C129.368 341.641 131.274 342.082 137.132 344.966C140.846 346.795 144.268 348.145 144.735 347.966C145.202 347.787 154.178 342.466 164.682 336.141L183.78 324.641L183.806 317.522L183.833 310.404L163.656 298.33L143.479 286.257L140.722 288.22C136.123 291.495 129.698 293.275 122.397 293.297C116.443 293.314 114.518 292.833 108.785 289.891L102.107 286.465L82.22 298.449L62.3327 310.432L62.4941 317.537L62.6554 324.641L81.9939 336.354C92.6301 342.796 101.607 348.083 101.942 348.104C102.277 348.123 105.39 346.678 108.856 344.891ZM36.2284 327.625C44.5007 323.699 44.882 311.802 36.8683 307.658C26.5354 302.315 15.6894 313.313 21.5343 323.208C23.3033 326.203 27.9996 329.079 31.1845 329.118C32.2013 329.131 34.4711 328.459 36.2284 327.625ZM220.938 326.856C227.378 322.526 227.791 314.285 221.839 308.891C213.595 301.42 200.703 310.383 204.216 321.144C205.516 325.124 210.85 329.141 214.836 329.141C216.323 329.141 219.069 328.113 220.938 326.856ZM129.565 271.564C135.48 267.738 136.096 259.247 130.839 253.99C128.519 251.67 127.121 251.141 123.312 251.141C119.327 251.141 118.133 251.644 115.236 254.541C112.611 257.165 111.836 258.773 111.836 261.591C111.836 267.792 114.515 271.34 120.836 273.51C122.865 274.206 126.853 273.318 129.565 271.564ZM358.836 463.063C333.261 447.649 311.098 433.704 309.586 432.074L306.836 429.109V372.672C306.836 331.24 307.151 315.542 308.023 313.629C309.671 310.013 404.27 253.141 408.638 253.141C410.76 253.141 425.11 261.214 458.477 281.179C484.249 296.601 506.348 310.351 507.586 311.735L509.836 314.252V372.141V430.029L507.586 432.47C506.348 433.813 484.267 447.563 458.517 463.026C422.97 484.372 410.932 491.134 408.517 491.114C406.15 491.095 393.426 483.91 358.836 463.063ZM398.596 420.956L398.336 378.77L362.878 357.456C343.377 345.732 327.289 336.141 327.128 336.141C326.967 336.141 326.852 355.153 326.873 378.391L326.91 420.641L362.124 441.817C381.491 453.464 397.679 463.027 398.098 463.067C398.516 463.108 398.74 444.157 398.596 420.956ZM454.919 441.816L490.336 420.491L490.596 378.229C490.757 352.274 490.496 336.097 489.921 336.304C489.406 336.489 473.218 346.091 453.948 357.641L418.912 378.641L418.874 420.891C418.851 444.128 418.985 463.141 419.168 463.141C419.352 463.141 435.44 453.545 454.919 441.816ZM444.545 340.118C463.68 328.555 479.464 318.72 479.621 318.262C479.926 317.371 410.489 275.141 408.719 275.141C407.456 275.141 336.819 317.416 336.873 318.139C336.934 318.942 407.209 361.076 408.545 361.11C409.21 361.125 425.41 351.681 444.545 340.118ZM36.6013 243.225L33.3356 240.31L33.0207 223.301C32.6617 203.916 33.4 201.057 39.4104 198.545C43.7934 196.714 47.1831 197.577 50.3386 201.327C52.7853 204.234 52.8357 204.635 52.8357 221.153C52.8357 230.425 52.4049 239.143 51.8786 240.528C50.7889 243.394 46.1508 246.141 42.401 246.141C41.0074 246.141 38.3975 244.829 36.6013 243.225ZM443.683 226.464C430.489 213.33 423.714 205.865 423.307 204.011C422.51 200.381 425.196 194.753 428.431 193.279C434.364 190.576 436.524 191.56 446.785 201.641C452.103 206.866 456.765 211.141 457.145 211.141C457.525 211.141 457.836 185.971 457.836 155.207V99.2739L434.252 98.9574L410.668 98.6409L407.752 95.3751C403.766 90.9118 403.769 86.054 407.759 82.064L410.682 79.1409H441.123H471.564L474.078 81.6551C475.461 83.0379 476.872 85.5692 477.214 87.2801C477.556 88.9911 477.836 117.644 477.836 150.953V211.515L487.696 201.828C496.995 192.692 497.794 192.141 501.742 192.141C508.233 192.141 513.05 198.196 511.485 204.391C511.172 205.628 501.985 215.528 491.069 226.391C472.103 245.265 471.05 246.141 467.336 246.141C463.623 246.141 462.571 245.266 443.683 226.464ZM245.707 235.135C241.391 232.854 237.031 227.936 236.335 224.564C236.06 223.231 235.629 221.128 235.376 219.891C235.023 218.157 232.922 216.795 226.224 213.956L217.53 210.272L214.111 212.88C209.282 216.563 201.511 217.13 195.532 214.236C188.812 210.983 170.61 191.827 168.977 186.289C167.368 180.83 168.246 175.289 171.474 170.532L173.941 166.896L170.439 158.268C166.942 149.655 166.929 149.64 162.694 148.91C157.821 148.071 152.219 143.936 149.374 139.081C147.795 136.386 147.333 133.34 147.005 123.471C146.78 116.728 146.905 108.742 147.282 105.726C148.399 96.785 153.58 90.9123 162.306 88.6966C166.862 87.5397 167.001 87.3839 170.389 79.5905C172.284 75.2295 173.836 71.3393 173.836 70.9456C173.836 70.5519 172.749 68.6288 171.421 66.672C168.235 61.9762 167.373 56.4178 168.993 51.0104C169.978 47.7234 172.794 44.0858 180.647 35.9572C191.569 24.6525 196.91 21.141 203.183 21.141C207.153 21.141 213.261 23.3107 215.826 25.6319C217.186 26.863 218.479 26.607 225.785 23.6615C234.774 20.0367 235.224 19.618 236.247 13.9204C237.103 9.15424 241.155 4.35506 246.294 2.02056C252.225 -0.673521 279.446 -0.673521 285.377 2.02056C290.058 4.147 294.601 9.1219 295.373 12.968C296.742 19.7911 297.092 20.1489 305.809 23.6466C312.97 26.5201 314.519 26.8404 315.809 25.7144C321.361 20.8695 329.548 19.855 336.385 23.1647C338.749 24.3091 345.094 29.8494 350.988 35.9147C358.995 44.1547 361.708 47.6497 362.694 50.9929C364.304 56.4524 363.425 61.9932 360.195 66.7526L357.726 70.3909L361.145 78.9342L364.564 87.4775L369.282 88.6756C378.053 90.9027 383.268 96.7543 384.375 105.61C384.744 108.563 384.886 116.527 384.69 123.31C384.399 133.415 383.974 136.254 382.335 139.035C379.444 143.941 373.86 148.069 368.977 148.91C364.742 149.64 364.73 149.655 361.232 158.268L357.73 166.896L360.197 170.532C363.342 175.166 364.283 180.764 362.828 186.17C361.936 189.482 359.431 192.738 351.509 200.884C338.534 214.225 334.781 216.522 326.895 215.952C322.541 215.637 320.144 214.851 317.586 212.9L314.141 210.272L305.447 213.956C298.749 216.795 296.648 218.157 296.295 219.891C296.042 221.128 295.611 223.231 295.336 224.564C294.622 228.025 290.217 232.906 285.75 235.185C282.395 236.896 279.875 237.135 265.625 237.097C251.552 237.059 248.842 236.792 245.707 235.135ZM276.836 211.776C276.836 204.072 278.93 201.847 289.118 198.722C293.638 197.335 300.868 194.388 305.185 192.171C315.155 187.052 318.518 186.955 323.704 191.641C325.835 193.566 327.985 195.141 328.484 195.141C328.982 195.141 332.51 191.996 336.325 188.151L343.261 181.161L339.514 177.323C333.794 171.466 333.74 168.398 339.173 158.141C341.649 153.466 344.666 146.266 345.876 142.141C348.821 132.102 351.044 129.898 358.791 129.338L364.836 128.901V118.521V108.141H359.351C351.841 108.141 348.79 105.236 345.881 95.318C344.7 91.2905 341.732 84.1677 339.285 79.4897C336.838 74.8116 334.836 70.0898 334.836 68.9968C334.836 66.311 336.502 63.2486 339.945 59.6048L342.813 56.5687L335.339 49.1444L327.865 41.7201L324.6 44.8692C320.605 48.7234 316.789 50.2619 313.681 49.2719C312.391 48.861 307.061 46.4626 301.836 43.942C296.611 41.4215 289.933 38.7648 286.996 38.0381C279.61 36.2106 276.836 32.8044 276.836 25.5642V20.1409H265.836H254.836V26.0046C254.836 33.3413 252.259 36.3837 244.538 38.1639C241.677 38.8235 235.061 41.4245 229.836 43.944C224.611 46.4634 219.28 48.861 217.99 49.2719C214.882 50.2619 211.067 48.7234 207.071 44.8692L203.806 41.7201L196.332 49.1444L188.858 56.5687L191.727 59.6048C195.17 63.2486 196.836 66.311 196.836 68.9968C196.836 70.0898 194.829 74.8207 192.376 79.5097C189.923 84.1988 186.922 91.4584 185.706 95.6421C182.84 105.507 180.006 108.141 172.259 108.141H166.836V118.521V128.901L172.88 129.338C180.595 129.896 182.841 132.097 185.766 141.964C186.961 145.991 189.98 153.191 192.477 157.964C197.942 168.412 197.892 171.451 192.158 177.323L188.41 181.161L195.346 188.151C199.161 191.996 202.69 195.141 203.188 195.141C203.686 195.141 205.837 193.566 207.967 191.641C213.237 186.88 216.484 187.032 227.518 192.554C232.368 194.981 239.575 197.918 243.534 199.081C252.636 201.754 254.836 204.225 254.836 211.776V217.141H265.836H276.836L276.836 211.776ZM250.492 178.56C228.84 173.317 210.518 154.857 204.808 132.531C193.349 87.7295 234.008 45.7234 279.138 55.7381C324.93 65.8995 344.055 120.056 314.885 156.96C306.906 167.053 293.33 175.633 280.58 178.639C272.812 180.471 258.226 180.432 250.492 178.56ZM279.611 158.131C292.698 153.538 303.033 142.887 306.965 129.942C311.497 115.022 307.729 99.2523 296.895 87.7972C275.759 65.4486 239.8 71.6238 226.581 99.8722C222.329 108.957 221.649 119.875 224.706 129.942C228.604 142.774 238.89 153.448 251.836 158.095C259.418 160.816 271.914 160.833 279.611 158.131ZM36.3308 169.727C32.9284 166.325 32.2319 162.63 34.2108 158.48C36.0954 154.528 40.8933 152.047 45.0968 152.851C49.0214 153.601 52.8355 158.502 52.8355 162.795C52.8355 170.823 41.9847 175.381 36.3308 169.727ZM76.3621 129.867C72.645 126.15 71.9159 122.819 73.9459 118.825C74.5566 117.624 78.9348 112.703 83.6751 107.891L92.2938 99.1409H72.5647H52.8355V110.218C52.8355 121.127 52.7913 121.339 49.9124 124.218C47.7516 126.379 46.0395 127.141 43.3467 127.141C34.2852 127.141 32.8356 123.831 32.8356 103.141C32.8356 86.1292 33.6415 82.3856 37.7802 80.1706C38.9624 79.5379 50.0342 79.1409 66.5001 79.1409H93.296L84.1758 69.8909C79.1597 64.8034 74.5561 59.658 73.9456 58.4567C72.095 54.815 72.6849 51.3411 75.7332 47.9294C78.1187 45.2596 79.3635 44.6864 82.776 44.6864C86.834 44.6864 87.3413 45.1079 106.878 64.714C125.111 83.0113 126.835 85.0396 126.829 88.1913C126.825 90.0886 126.028 92.7659 125.057 94.1409C124.086 95.5159 115.17 104.643 105.245 114.424C90.0641 129.383 86.6174 132.302 83.5432 132.801C80.3155 133.325 79.4767 132.982 76.3621 129.867Z" fill="black"/>
</svg>
