<svg width="500" height="500" viewBox="0 0 500 500" fill="none" xmlns="http://www.w3.org/2000/svg">
<path d="M273.394 488.605C241.505 482.997 213.374 460.776 201.535 431.843C199.599 427.112 198.056 424.594 197.108 424.616C196.308 424.636 188.088 426.464 178.842 428.68L162.031 432.709L160.913 439.336C157.859 457.447 144.953 470.632 127.643 473.324C98.3005 477.889 74.2519 448.86 84.1609 420.838C87.7059 410.813 96.8828 401.326 106.979 397.248C114.523 394.201 129.762 394.249 136.645 397.341C143.752 400.534 150.494 406.067 154.349 411.871C156.258 414.744 158.113 417.1 158.472 417.105C158.831 417.111 167.151 415.197 176.961 412.851L194.797 408.585L194.097 401.376C192.767 387.682 195.731 370.229 201.811 355.953C204.773 348.996 213.297 335.503 216.634 332.485C217.716 331.506 218.601 330.105 218.601 329.371C218.601 328.636 212.205 321.016 204.387 312.436C196.569 303.857 189.667 296.274 189.05 295.585C188.128 294.557 187.089 294.934 183.243 297.695C180.666 299.545 174.607 302.91 169.778 305.174C147.177 315.768 120.846 317.004 97.6834 308.558L90.3281 305.876L83.2802 318.352C79.4039 325.213 76.2323 331.418 76.2323 332.14C76.2323 332.863 77.5108 334.678 79.0734 336.173C91.1683 347.751 92.6615 369.866 82.3576 384.814C68.4392 405.006 38.7804 407.695 21.6216 390.321C-0.384252 368.038 10.6788 330.77 41.4514 323.519C46.1644 322.409 55.3668 322.631 59.8411 323.963C61.4525 324.442 62.7416 322.671 69.0591 311.295C76.0901 298.634 76.3264 298.016 74.5933 296.803C61.6224 287.725 51.4742 275.838 43.9817 260.946C37.4512 247.965 34.0837 233.605 34.0837 218.736C34.0837 198.929 39.6486 181.151 51.2343 163.947C56.138 156.665 67.6398 145.207 75.0615 140.211C78.2812 138.043 80.9155 135.928 80.9155 135.511C80.9155 135.094 76.1224 124.687 70.2641 112.384L59.6129 90.0147L52.0872 90.3405C30.9129 91.2571 13.9712 77.4769 10.4938 56.5091C6.24484 30.8889 30.1037 7.23247 55.6562 11.7297C67.5943 13.8308 78.2444 20.9974 83.9926 30.7976C92.8135 45.8369 90.4771 65.6737 78.4116 78.181L73.8487 82.9109L84.4473 105.173C90.2766 117.418 95.3439 127.726 95.708 128.081C96.0721 128.435 99.9526 127.658 104.331 126.353C115.332 123.074 135.781 122.258 147.417 124.634C175.986 130.466 197.484 146.013 213.465 172.395C214.311 173.792 219.32 171.893 258.259 155.412C297.545 138.785 302.055 136.66 301.668 134.96C301.431 133.917 300.502 129.905 299.604 126.045C297.359 116.392 297.291 97.9295 299.468 88.7269C300.366 84.9304 300.919 81.6428 300.698 81.4212C300.476 81.1996 294.708 78.9392 287.88 76.3981C274.4 71.3819 275.028 71.3692 271.917 76.722C270.004 80.0143 259.625 86.7221 253.537 88.601C233.195 94.8785 211.093 83.9361 203.993 64.0722C197.431 45.7176 206.442 23.7186 223.914 15.4386C247.973 4.03622 275.069 17.4757 280.475 43.4924C281.055 46.2815 281.381 50.4172 281.201 52.6827L280.873 56.8017L286.968 59.0926C298.186 63.3088 305.929 66.1505 306.198 66.1505C306.345 66.1505 307.833 63.729 309.503 60.7694C313.674 53.3811 322.321 42.2136 327.827 37.1048C349.137 17.3304 378.667 7.84857 406.217 11.9343C463.221 20.388 500.035 75.0201 486.014 130.353C479.039 157.881 460.519 180.425 434.576 192.97C415.588 202.151 392.732 204.757 372.704 200.024C370.658 199.54 368.777 199.351 368.524 199.604C368.272 199.856 359.373 224.153 348.749 253.597L329.434 307.132L335.133 310.331C343.859 315.229 353.84 323.041 359.8 329.635L365.184 335.594L374.082 329.828C378.976 326.657 389.587 319.758 397.662 314.497L412.343 304.931L411.009 300.502C405.817 283.267 415.172 262.838 431.847 254.996C448.048 247.376 466.043 250.551 477.949 263.129C502.605 289.177 482.826 332.108 447.22 329.828C438.812 329.29 431.197 326.589 425.211 322.023C422.759 320.152 420.395 319.011 419.734 319.38C416.589 321.136 376.258 347.335 375.175 348.326C374.143 349.27 374.323 350.26 376.216 354.036C382.009 365.595 384.744 378.373 384.806 394.166C384.908 420.172 376.308 441.678 358.355 460.309C336.081 483.427 304.243 494.031 273.394 488.605ZM308.518 471.744C316.046 469.779 324.169 466.306 331.226 462.034C337.378 458.31 337.345 458.704 332.364 448.361C328.428 440.185 322.084 434.007 313.41 429.902L307.113 426.921H289.317H271.521L265.265 429.883C254.836 434.819 248.135 442.205 243.842 453.492C241.746 459.004 241.783 459.053 252.32 464.661C265.813 471.843 276.765 474.34 292.127 473.738C297.793 473.515 305.17 472.619 308.518 471.744ZM129.858 456.406C149.344 449.122 150.825 422.217 132.248 412.968C112.695 403.232 90.8213 423.63 99.7218 443.299C105.293 455.61 117.632 460.977 129.858 456.406ZM232.106 440.21C235.745 432.484 246.892 421.24 254.919 417.197L260.797 414.236L257.528 409.959C252.092 402.845 250.095 396.466 250.095 386.211C250.095 375.549 252.291 368.952 258.274 361.641C271.731 345.197 294.601 341.877 312.02 353.838C317.991 357.938 323.767 365.178 326.39 371.852C328.096 376.194 328.539 379.153 328.539 386.211C328.539 396.462 326.542 402.845 321.114 409.948L317.854 414.214L323.255 416.824C330.93 420.533 342.994 432.649 346.54 440.21C348.037 443.401 349.551 446.033 349.905 446.059C350.258 446.085 352.851 442.632 355.667 438.385C364.608 424.899 368.229 413.958 369.061 397.91C370.724 365.852 352.701 336.006 323.264 322.072C312.21 316.839 303.246 314.897 289.785 314.817C276.763 314.74 267.43 316.634 256.559 321.559C238.491 329.744 222.469 346.467 215.382 364.536C207.698 384.126 208.006 407.304 216.199 425.993C218.574 431.41 227.897 446.155 228.887 446.059C229.154 446.033 230.602 443.401 232.106 440.21ZM298.814 408.206C300.431 407.533 303.437 405.464 305.493 403.608C319.79 390.702 312.79 366.302 293.855 363.043C278.759 360.445 265.496 371.268 265.463 386.211C265.445 394.302 269.08 400.804 276.959 406.771C281.673 410.341 292.047 411.022 298.814 408.206ZM57.4665 384.819C71.2199 379.971 77.4992 364.275 70.8066 351.475C61.669 333.998 37.5396 334.297 28.1824 352.003C25.3927 357.282 25.3834 367.395 28.1625 372.654C33.9582 383.617 46.32 388.749 57.4665 384.819ZM239.579 312.834C248.142 307.462 259.72 302.818 270.552 300.409C279.071 298.515 300.23 298.554 308.05 300.48C311.141 301.24 313.957 301.575 314.308 301.222C314.66 300.87 323.374 277.208 333.674 248.642C343.974 220.075 352.673 196.003 353.006 195.149C353.422 194.082 353.007 193.404 351.683 192.984C350.623 192.647 345.884 189.832 341.153 186.728C331.23 180.218 320.089 169.346 314.414 160.635C312.247 157.309 309.929 153.884 309.262 153.023C308.161 151.601 304.056 153.159 264.496 170.005C234.332 182.851 221.046 188.943 221.278 189.82C221.462 190.517 222.451 195.087 223.475 199.977C225.943 211.758 225.474 230.318 222.411 242.09C219.043 255.033 211.431 269.697 202.187 281.049L199.802 283.978L215.347 300.936C223.897 310.263 231.032 317.894 231.202 317.894C231.372 317.894 235.142 315.617 239.579 312.834ZM457.528 312.868C462.79 310.988 467.203 307.107 470.164 301.755C472.448 297.627 472.882 295.786 472.866 290.287C472.841 280.802 468.376 273.519 459.785 268.942C453.889 265.801 444.383 266.098 438.004 269.621C420.951 279.04 421.472 303.053 438.916 311.739C444.382 314.46 451.808 314.911 457.528 312.868ZM145.349 296.759C153.914 295 163.72 291.081 171.106 286.465C175.916 283.459 176.395 282.873 175.88 280.622C172.801 267.143 159.648 254.46 145.731 251.551C138.74 250.089 118.032 250.254 112.152 251.819C104.946 253.736 98.3154 257.716 93.0362 263.293C88.1423 268.464 82.4011 279.161 82.961 282.066C83.6359 285.568 101.443 294.17 113.229 296.688C121.963 298.554 136.451 298.586 145.349 296.759ZM77.9711 255.73C81.9698 250.438 89.4352 244.339 95.9017 241.081C98.2198 239.913 100.233 238.879 100.376 238.784C100.518 238.688 99.0931 236.339 97.2089 233.565C92.708 226.938 91.4932 223.931 90.2995 216.465C86.503 192.72 105.302 170.936 129.556 170.976C144.935 171.001 158.811 179.931 165.429 194.063C171.526 207.081 169.582 224.498 160.87 234.91C159.652 236.364 158.657 237.838 158.658 238.185C158.66 238.532 161.083 240.059 164.044 241.58C171.562 245.442 182.897 256.895 186.74 264.512L189.789 270.556L192.382 267.656C198.841 260.434 205.658 245.627 207.889 233.98C212.807 208.297 205.311 182.608 187.404 163.772C171.966 147.534 152.286 139.147 129.621 139.147C106.955 139.147 87.2746 147.534 71.837 163.772C53.9296 182.608 46.4343 208.297 51.3523 233.98C53.5374 245.391 59.9979 259.589 66.5407 267.358L69.0074 270.287L71.682 265.4C73.1531 262.712 75.9832 258.36 77.9711 255.73ZM136.818 233.363C146.776 229.694 153.053 220.947 153.016 210.79C152.955 194.142 137.938 183.201 121.768 188.025C115.872 189.784 108.616 197.342 106.761 203.657C104.905 209.975 104.902 211.509 106.736 217.677C110.377 229.93 125.182 237.649 136.818 233.363ZM412.96 184.066C420.645 182.102 433.612 176.312 437.931 172.916C440.236 171.104 440.354 170.681 439.465 167.449C437.868 161.648 435.015 156.87 429.956 151.526C420.158 141.174 413.11 138.761 392.815 138.808C379.943 138.838 377.66 139.087 372.678 141.004C365.713 143.683 360.519 147.173 355.913 152.268C352.017 156.576 346.922 166.495 346.921 169.773C346.919 174.172 367.513 183.624 382.044 185.895C389.969 187.133 404.269 186.287 412.96 184.066ZM346.378 139.591C351.057 134.947 355.981 131.075 359.279 129.445L364.614 126.81L360.92 121.404C355.397 113.319 354.14 109.159 354.121 98.9053C354.101 88.2162 356.276 81.6439 362.278 74.2516C374.004 59.8086 393.512 55.194 410.38 62.8735C420.46 67.4631 429.477 78.8394 432.159 90.3527C434.555 100.642 431.652 114.043 425.197 122.49L422.052 126.605L426.869 129.126C436.837 134.343 446.179 143.843 451.283 153.955L453.797 158.936L457.024 154.891C465.759 143.942 472.179 126.214 473.064 110.603C475.689 64.3107 435.868 24.524 389.537 27.1462C338.901 30.0121 303.564 77.8263 316.035 126.6C318.781 137.341 325.08 149.779 331.243 156.633L333.082 158.677L335.947 152.889C337.862 149.021 341.321 144.611 346.378 139.591ZM403.118 120.354C418.944 113.196 422.009 92.7136 409.007 81.0031C404.388 76.8422 399.582 75.1166 392.815 75.1887C368.198 75.4511 360.626 108.889 382.695 119.878C388.892 122.963 396.934 123.151 403.118 120.354ZM58.9045 72.8256C67.9006 68.7281 73.4542 60.4426 73.3813 51.2271C73.3049 41.5526 69.2373 34.5843 61.0161 30.0435C54.6368 26.5201 45.1304 26.2236 39.2352 29.3641C30.6436 33.941 26.18 41.2241 26.1533 50.709C26.1391 56.208 26.5717 58.0495 28.8554 62.1772C31.8165 67.5294 36.23 71.4106 41.4923 73.29C46.3905 75.0395 54.5201 74.8226 58.9045 72.8256ZM252.116 72.16C269.775 63.3673 269.63 38.7286 251.864 29.3521C246.601 26.5744 236.479 26.5837 231.196 29.3719C213.475 38.7213 213.176 62.8305 230.667 71.9604C237.482 75.5177 245.228 75.5893 252.116 72.16Z" fill="black"/>
</svg>
