<svg width="500" height="500" viewBox="0 0 500 500" fill="none" xmlns="http://www.w3.org/2000/svg">
<path d="M10 384.241V278.482H66.1328H122.266V295.797C122.266 310.213 122.49 313.111 123.608 313.111C124.346 313.111 127.819 312.514 131.326 311.784C144.193 309.107 162.376 307.281 176.527 307.246C192.052 307.208 200.914 308.334 233.596 314.501C254.364 318.42 272.203 320.596 283.642 320.606C301.633 320.62 312.217 324.218 321.411 333.441C327.577 339.626 331.48 346.906 333.043 355.137C333.64 358.276 334.395 360.843 334.722 360.843C335.048 360.843 356.858 349.231 383.187 335.039C425.501 312.23 431.885 309.066 438.177 307.782C466.605 301.982 493.136 327.706 488.232 356.314C486.244 367.912 480.823 377.154 472.285 383.502C459.754 392.819 404.11 432.493 396.849 437.288C358.324 462.727 313.77 479.64 266.808 486.651C251.707 488.906 228.441 490.281 215.352 489.692C194.637 488.761 184.585 486.17 162.962 476.189C155.758 472.864 146.917 469.094 143.315 467.812C137.282 465.663 126.207 462.913 123.435 462.875C122.553 462.864 122.266 466.188 122.266 476.429V490H66.1328H10V384.241ZM94.1992 384.241V306.56H66.1328H38.0664V384.241V461.922H66.1328H94.1992V384.241ZM242.998 460.945C269.128 458.915 296.475 453.134 320.134 444.639C335.668 439.061 364.966 424.63 377.761 416.255C395.545 404.614 457.022 359.838 458.665 357.329C461.283 353.332 461.369 347.88 458.889 343.082C456.195 337.869 451.82 335.202 446.038 335.247C442.22 335.275 435.349 338.733 382.816 367.054C350.399 384.53 322.647 399.36 321.145 400.01C319.644 400.66 315.013 402.075 310.854 403.155C303.77 404.996 300.274 405.145 255.347 405.523L207.4 405.927V391.851V377.775L251.772 377.499C295.106 377.228 296.204 377.176 298.783 375.264C307.814 368.567 307.849 357.822 298.86 351.161C296.625 349.505 294.239 349.172 280.15 348.557C262.033 347.766 250.001 346.234 226.111 341.68C190.771 334.943 176.54 333.89 155.477 336.452C144.802 337.751 127.938 340.857 124.539 342.15L122.248 343.021L122.491 388.612L122.734 434.203L131.818 435.807C143.788 437.919 153.4 441.167 170.538 448.89C178.307 452.39 187.545 456.186 191.066 457.324C204.555 461.684 219.804 462.747 242.998 460.945ZM123.201 236.366V222.327H137.234H151.268V194.25V166.172H193.367H235.467V194.25V222.327H249.5H263.533V173.191V124.056H305.633H347.733V173.191V222.327H362.233H376.734V187.23V152.133H418.834H460.934V187.23V222.327H474.967H489V236.366V250.405H306.101H123.201V236.366ZM207.4 208.288V194.25H193.367H179.334V208.288V222.327H193.367H207.4V208.288ZM319.666 187.23V152.133H305.633H291.6V187.23V222.327H305.633H319.666V187.23ZM432.867 201.269V180.211H418.834H404.801V201.269V222.327H418.834H432.867V201.269ZM178.735 134.976C161.968 128.593 151.268 113.213 151.268 95.4949C151.268 74.3759 166.075 57.1733 187.28 53.6581C198.602 51.7812 210.704 55.3674 220.795 63.59L226.205 67.9987L244.622 61.0732L263.039 54.1476L264.173 47.3674C267.353 28.3704 280.845 14.677 299.539 11.4736C307.094 10.1789 316.531 11.5857 323.998 15.1194C334.966 20.3103 344.634 32.4607 346.941 43.9549C347.884 48.6508 348.274 49.2412 350.9 49.9418C352.503 50.3693 360.339 52.3184 368.315 54.2732L382.816 57.8275L388.904 51.8082C395.977 44.8156 402.756 41.2642 412.088 39.6633C424.769 37.488 438.85 42.0879 448.175 51.4519C469.04 72.4026 462.777 107.039 435.842 119.656C424.825 124.816 408.31 124.177 398.252 118.201C387.821 112.002 381.335 103.72 378.123 92.4992L376.038 85.215L358.92 80.8282L341.801 76.4413L336.454 81.9932C328.69 90.0546 319.34 94.347 308.404 94.8701C295.927 95.4669 285.974 92.043 277.667 84.2966L273.356 80.2762L254.608 87.2853L235.859 94.2944L234.759 101.211C232.507 115.368 224.078 126.874 211.345 133.169C204.682 136.464 203.671 136.687 194.37 136.917C185.891 137.127 183.659 136.85 178.735 134.976ZM199.889 107.691C208.417 103.279 209.661 91.3781 202.273 84.8889C193.446 77.1355 179.334 83.3344 179.334 94.9651C179.334 100.648 183.142 106.733 187.754 108.42C190.567 109.449 197.269 109.046 199.889 107.691ZM426.482 92.7278C430.782 89.8047 433.385 83.5894 432.434 78.5162C431.55 73.8073 425.99 68.2749 421.246 67.3845C412.933 65.8244 404.798 72.5162 404.804 80.9078C404.815 92.2718 417.21 99.0309 426.482 92.7278ZM312.892 65.0978C321.429 59.8904 322.062 47.3999 314.076 41.7112C308.109 37.4605 300.378 38.4395 295.435 44.0717C291.712 48.3134 290.932 52.7793 292.978 58.1392C296.036 66.149 305.657 69.5108 312.892 65.0978Z" fill="black"/>
</svg>
