<svg width="500" height="500" viewBox="0 0 500 500" fill="none" xmlns="http://www.w3.org/2000/svg">
<path d="M414.512 483.256C406.118 470.688 404.988 467.76 407.046 463.914C407.662 462.763 420.806 455.601 439.046 446.477L470 430.994V350.613V270.233L467.49 269.753C465.343 269.343 464.352 270.157 460.632 275.387C416.75 337.073 387.62 401.844 369.454 478.12L365.733 493.741L359.117 492.253C355.478 491.435 351.99 490.481 351.367 490.133C350.576 489.691 351.976 482.57 356.016 466.5C366.621 424.306 374.961 400.515 394.58 356.488C394.828 355.931 392.463 352.419 389.323 348.684L383.615 341.892L366.671 358.836L349.727 375.78L345.892 432.64C343.783 463.913 342.044 490.062 342.029 490.75C341.995 492.175 327.48 492.586 326.615 491.186C326.338 490.738 327.626 467.676 329.476 439.936C331.326 412.196 332.989 386.823 333.17 383.552L333.5 377.603L328.757 376.128C326.148 375.317 323.853 374.844 323.657 375.076C323.461 375.309 316.65 402.174 308.521 434.776C296.013 484.939 293.492 493.981 292.12 493.586C291.229 493.329 288.475 492.615 286 492C283.525 491.384 280.771 490.671 279.879 490.414C278.483 490.012 280.449 481.185 294.012 426.953L309.767 363.959L308.26 357.979C307.432 354.691 306.464 352 306.109 352C305.302 352 291.171 374.194 283.545 387.44C268.517 413.541 253.448 447.038 243.321 476.854C240.211 486.009 237.56 493.644 237.429 493.821C236.796 494.676 223 489.752 223 488.67C223 486.654 232.336 459.497 237.478 446.555C248.444 418.956 262.832 390.219 278.277 365.073C280.722 361.093 281.399 360.762 265.802 371.166C237.138 390.287 219.422 409.935 205.99 437.5C197.837 454.231 192.696 470.901 190.502 487.719L189.821 492.937L185.161 492.415C173.354 491.091 173.923 491.398 174.573 486.704C180.934 440.726 202.519 401.376 237.324 372.309C242.177 368.256 269.515 349.351 298.074 330.297L350 295.654V285.827V276H312.455H274.909L272.455 273.545L270 271.091V221.545V172H252.646C235.406 172 235.274 171.985 232.526 169.436C230.287 167.361 229.86 166.264 230.285 163.686C230.575 161.934 241.858 140.004 255.359 114.954C268.86 89.9043 280.176 68.7061 280.505 67.8472C280.927 66.7491 280.14 65.8864 277.857 64.9404C272.934 62.9012 268.168 58.247 265.211 52.59C263.02 48.3984 262.55 46.1761 262.548 40C262.545 28.5637 267.377 20.5356 277.5 15.1567L282.5 12.4999L359.741 12.2258C444.935 11.9239 443.567 11.84 456.9 18.1777C461.401 20.3173 465.762 23.5708 470.611 28.4074C481.788 39.5556 487.34 52.605 487.241 67.4998C487.211 71.8998 483.321 106.19 478.594 143.7C470.24 209.995 470 212.486 470 232.898V253.896L476.04 255.591C487 258.666 486 249.168 486 350.2C486 409.466 485.659 438.768 484.955 440.085C484.342 441.23 471.906 448.043 454.911 456.544C434.771 466.619 426.132 471.424 426.631 472.275C427.026 472.949 429.081 476.078 431.198 479.23C433.315 482.381 435.295 485.605 435.598 486.393C435.96 487.337 434.097 489.218 430.128 491.913C426.818 494.161 423.865 496 423.567 496C423.268 496 419.193 490.265 414.512 483.256ZM368.781 324.738C366.524 322.043 362.817 317.782 360.542 315.269L356.406 310.701L337.953 322.99C327.804 329.749 319.414 335.34 319.309 335.414C319.204 335.488 320.353 340.487 321.862 346.524L324.606 357.5L332.053 360.161L339.5 362.822L356.192 346.23L372.884 329.638L368.781 324.738ZM407.458 331.25C409.921 326.437 413.785 319.237 416.044 315.25L420.153 308H397.954C376.189 308 375.783 308.038 377.128 309.937C378.714 312.177 402.38 339.93 402.74 339.972C402.872 339.987 404.995 336.062 407.458 331.25ZM435.136 284.25C437.995 279.987 443.409 272.172 447.167 266.882L454 257.264V236.031V214.798L434 190.802C420.132 174.163 414 166.065 414 164.389C414 163.059 416.907 156.169 420.461 149.078L426.921 136.185L414.211 131.089C407.22 128.286 401.176 125.994 400.78 125.996C400.385 125.998 392.117 135.562 382.408 147.25C372.698 158.937 363.86 169.287 362.766 170.25C359.904 172.769 355.369 172.459 352.455 169.545L350 167.091V117.545V67.9999L324.25 68.0339L298.5 68.068L275.25 111.435C262.463 135.287 252 155.071 252 155.4C252 155.73 258.546 155.999 266.546 155.999C280.656 155.999 281.164 156.073 283.545 158.453L286 160.908V210.453V259.999H320.242H354.484L377.241 237.258L399.997 214.518L405.739 220.26L411.481 226.001L388.74 248.758L366 271.515V281.757V291.999H397.969H429.939L435.136 284.25ZM296.455 121.545C294.907 119.998 294 117.948 294 116C294 114.052 294.907 112.002 296.455 110.454C298.766 108.143 299.558 108 310 108C320.442 108 321.235 108.143 323.545 110.454C325.093 112.002 326 114.052 326 116C326 117.948 325.093 119.998 323.545 121.545C321.235 123.856 320.442 124 310 124C299.558 124 298.766 123.856 296.455 121.545ZM464.341 129.25L472.141 66.4998L470.488 59.2406C467.624 46.6593 459.602 36.984 447.226 31.1837L441.5 28.4999H363.27H285.039L281.77 31.7692C278.967 34.572 278.5 35.7375 278.5 39.9386C278.5 45.2805 281.175 49.3151 285.935 51.1515C287.305 51.6799 304.198 52.0618 324.548 52.0244C358.866 51.9613 360.849 52.0585 363.113 53.8899L365.5 55.8217L366 98.5942L366.5 141.367L378.872 126.433C392.957 109.433 394.396 108 397.384 108C400.947 108 442.348 124.93 444.25 127.165C445.212 128.296 446 130.303 446 131.624C446 132.945 442.801 140.412 438.892 148.216C432.446 161.083 431.91 162.606 433.142 164.55C435.063 167.582 455.391 191.954 456.02 191.979C456.307 191.99 460.051 163.762 464.341 129.25ZM8.45459 489.545L6 487.091V252V16.909L8.45459 14.4545L10.9092 12H128.455H246V19.9999V28H134H22V252V476H90H158V484V492H84.4546H10.9092L8.45459 489.545ZM40.4546 401.545L38 399.091V356V312.909L40.4546 310.454C42.8191 308.09 43.4064 308 56.4546 308H70.0001V298.454C70.0001 289.653 70.1914 288.718 72.4547 286.455C74.8893 284.02 75.064 284 94.0001 284C112.936 284 113.111 284.019 115.546 286.455C117.809 288.718 118 289.653 118 298.454V308H126H134V290.454C134 273.159 134.034 272.874 136.455 270.455C138.819 268.09 139.406 268 152.455 268H166V254.454C166 241.406 166.09 240.819 168.455 238.454C170.889 236.02 171.064 236 190 236C208.936 236 209.111 236.019 211.545 238.454L214 240.909V304V367.091L211.545 369.545L209.091 372H131.546H54V380V388H122H190V396V404H116.455H42.9091L40.4546 401.545ZM70.0001 340V324H62.0001H54V340V356H62.0001H70.0001V340ZM102 328V300H94.0001H86.0001V328V356H94.0001H102V328ZM134 340V324H126H118V340V356H126H134V340ZM166 320V284H158H150V320V356H158H166V320ZM198 304V252H190H182V304V356H190H198V304ZM70.0001 196.113V188.227L65.7431 187.589C52.0333 185.533 40.4966 174.162 38.4807 160.719L37.773 156H45.7752H53.7774L54.4381 159.521C55.3137 164.189 60.296 169.709 64.87 171.079C66.9823 171.712 73.5269 172.037 80.2077 171.841C92.8165 171.472 94.9045 170.687 99.4382 164.615C102.329 160.743 102.329 151.257 99.4382 147.385C94.7446 141.098 93.0917 140.546 77.1777 139.949C65.0296 139.494 61.6677 139.023 57.6706 137.22C50.2059 133.853 45.6373 129.666 41.9324 122.795C38.8326 117.047 38.5375 115.761 38.5375 108C38.5375 100.237 38.8323 98.9533 41.9355 93.1985C43.8044 89.7327 46.6726 85.7703 48.3093 84.393C52.7746 80.6358 59.9834 77.275 65.2811 76.4806L70.0001 75.7728V67.8864V59.9998H78.0001H86.0001V67.8864V75.7728L90.7191 76.4806C104.178 78.4988 115.377 89.8679 117.581 103.75L118.256 108H110.239H102.223L101.562 104.478C100.686 99.8111 95.7041 94.2911 91.1301 92.9207C89.0178 92.2879 82.4732 91.9625 75.7924 92.1583C65.9134 92.4478 63.7193 92.8137 61.3814 94.5616C56.1357 98.4834 54.5001 101.678 54.5001 108C54.5001 114.324 56.1376 117.52 61.3848 121.438C63.7946 123.237 66.0779 123.57 79.323 124.056C94.146 124.599 94.6469 124.691 100.796 127.97C111.694 133.782 117.449 143.455 117.473 156C117.484 162.014 116.969 164.606 114.874 169.086C110.276 178.915 100.849 186 90.2569 187.589L86.0001 188.227V196.113V204H78.0001H70.0001V196.113ZM134 196V188H166H198V196V204H166H134V196ZM134 156V148H174H214V156V164H174H134V156ZM134 116V108H182H230V116V124H182H134V116ZM150 76.0001V67.9999H174H198V76.0001V84H174H150V76.0001ZM214 76.0001V67.9999H230H246V76.0001V84H230H214V76.0001Z" fill="black"/>
</svg>
