<svg width="500" height="500" viewBox="0 0 500 500" fill="none" xmlns="http://www.w3.org/2000/svg">
<path d="M118.895 486.104C113.687 484.382 111.396 483.037 107.164 479.213C101.435 474.037 98.7438 467.909 98.2479 458.913L97.8297 451.331L79.9565 440.621C70.1262 434.731 61.7884 429.911 61.4281 429.911C61.0678 429.911 58.0452 431.254 54.711 432.896C49.5947 435.414 47.6151 435.88 42.0222 435.88C30.3703 435.88 20.714 429.68 15.4607 418.826C12.6185 412.953 12.5243 401.551 15.2689 395.596C17.9719 389.731 22.5243 384.833 28.3062 381.57L33.2238 378.795L33.2098 356.886L33.1958 334.978L27.8845 332.132C18.0843 326.88 12.1057 315.789 13.1094 304.72C14.9972 283.901 36.8932 271.929 55.5162 281.534L61.3402 284.537L79.5916 273.637L97.8431 262.736L98.2368 255.288C98.7019 246.492 100.98 241.044 106.501 235.523C112.61 229.414 117.493 227.538 127.231 227.559C134.458 227.574 136.198 227.907 140.312 230.062C150.221 235.252 157.455 248.12 156.085 258.118L155.534 262.138L174.161 273.46C191.206 283.82 192.955 284.677 194.742 283.54C201.358 279.33 204.168 278.508 211.976 278.494C218.453 278.483 220.658 278.879 224.408 280.725C229.963 283.459 235.286 288.631 238.024 293.956C240.845 299.441 241.477 310.358 239.346 316.776C237.432 322.537 231.217 329.681 225.463 332.733L221.238 334.975L221.263 357.205L221.287 379.434L225.114 381.201C234.188 385.391 239.842 394.149 240.492 405.022C241.041 414.208 239.166 419.979 233.634 426.132C224.045 436.797 208.584 439.208 196.978 431.848L192.862 429.237L174.377 440.445L155.892 451.653V458.22C155.892 469.783 149.579 479.614 138.942 484.614C133.802 487.03 123.917 487.765 118.895 486.104ZM132.398 467.231C135.106 465.631 137.881 461.04 137.881 458.16C137.881 457.295 137.249 455.256 136.477 453.628C131.731 443.627 116.579 446.928 116.579 457.964C116.579 462.497 117.807 464.752 121.501 467.005C125.143 469.225 128.89 469.303 132.398 467.231ZM112.861 432.921L117.479 430.374L117.493 408.086L117.507 385.798L114.306 384.271C109.354 381.91 103.714 376.322 101.069 371.158C99.2438 367.594 98.5668 364.647 98.2491 358.886L97.8311 351.304L79.9578 340.594C70.1275 334.703 61.7452 329.884 61.3305 329.884C60.9157 329.884 58.3828 331.03 55.7015 332.431L50.8266 334.978L50.8245 356.886L50.8222 378.795L55.7398 381.57C65.5576 387.111 70.5574 395.46 70.8181 406.749L70.9784 413.687L88.9172 424.544C98.7835 430.515 107.168 435.416 107.55 435.435C107.932 435.452 110.321 434.322 112.861 432.921ZM164.831 424.586L183.053 413.703L183.456 405.831C183.749 400.1 184.418 396.877 185.915 393.983C188.596 388.803 194.043 383.416 198.839 381.201L202.666 379.434L202.655 357.206L202.645 334.978L197.758 332.149L192.87 329.32L174.381 340.461L155.891 351.601V358.18C155.891 369.506 149.363 379.899 139.503 384.271L136.03 385.811V408.234V430.656L138.577 431.582C139.978 432.091 141.957 433.16 142.976 433.958C143.995 434.756 145.229 435.423 145.719 435.439C146.208 435.456 154.808 430.571 164.831 424.586ZM46.5538 416.467C52.0344 413.866 54.1088 407.588 51.2893 402.136C49.3304 398.348 46.3687 396.569 42.0222 396.569C30.9 396.569 27.3797 411.516 37.3438 416.434C40.9389 418.208 42.8692 418.216 46.5538 416.467ZM217.627 415.755C223.592 411.744 223.975 404.112 218.462 399.116C210.826 392.196 198.887 400.498 202.14 410.464C203.344 414.15 208.284 417.871 211.975 417.871C213.353 417.871 215.896 416.919 217.627 415.755ZM132.398 367.203C138.338 363.694 139.283 355.615 134.31 350.85C127.489 344.316 116.579 348.676 116.579 357.936C116.579 362.47 117.807 364.725 121.501 366.977C125.143 369.198 128.89 369.276 132.398 367.203ZM113.82 332.431C118.902 329.81 120.568 329.421 126.705 329.421C132.817 329.421 134.583 329.829 140.008 332.5C143.448 334.194 146.617 335.444 147.05 335.279C147.483 335.113 155.796 330.185 165.525 324.327L183.212 313.676L183.237 307.083L183.261 300.489L164.574 289.307L145.887 278.125L143.333 279.943C139.074 282.976 133.123 284.625 126.362 284.645C120.846 284.662 119.064 284.216 113.754 281.491L107.569 278.318L89.1501 289.417L70.731 300.516L70.8805 307.096L71.0299 313.676L88.9408 324.524C98.7917 330.49 107.106 335.388 107.416 335.407C107.727 335.424 110.61 334.086 113.82 332.431ZM46.5538 316.439C54.2155 312.804 54.5686 301.784 47.1465 297.946C37.5765 292.997 27.5312 303.184 32.9445 312.349C34.583 315.122 38.9325 317.786 41.8823 317.822C42.8241 317.834 44.9263 317.212 46.5538 316.439ZM217.627 315.728C223.592 311.717 223.975 304.085 218.462 299.088C210.826 292.169 198.887 300.471 202.14 310.437C203.344 314.123 208.284 317.844 211.975 317.844C213.353 317.844 215.896 316.891 217.627 315.728ZM133 264.517C138.479 260.973 139.049 253.11 134.18 248.241C132.031 246.092 130.736 245.602 127.209 245.602C123.518 245.602 122.412 246.067 119.728 248.751C117.298 251.181 116.579 252.671 116.579 255.28C116.579 261.023 119.061 264.309 124.915 266.319C126.795 266.964 130.488 266.141 133 264.517ZM345.345 441.879C321.658 427.603 301.132 414.688 299.731 413.178L297.184 410.432V358.161C297.184 319.788 297.476 305.249 298.283 303.477C299.809 300.128 387.425 247.454 391.47 247.454C393.436 247.454 406.727 254.931 437.63 273.423C461.5 287.705 481.967 300.44 483.113 301.723L485.197 304.054V357.669V411.284L483.113 413.545C481.967 414.789 461.516 427.524 437.667 441.845C404.744 461.615 393.595 467.879 391.358 467.86C389.167 467.842 377.382 461.188 345.345 441.879ZM382.17 402.88L381.929 363.809L349.089 344.068C331.027 333.21 316.127 324.327 315.978 324.327C315.829 324.327 315.723 341.936 315.742 363.458L315.776 402.589L348.39 422.202C366.328 432.989 381.321 441.846 381.708 441.883C382.096 441.921 382.303 424.369 382.17 402.88ZM434.335 422.201L467.137 402.45L467.378 363.308C467.527 339.269 467.285 324.286 466.753 324.478C466.276 324.649 451.283 333.542 433.436 344.24L400.986 363.689L400.951 402.82C400.93 424.343 401.054 441.952 401.224 441.952C401.393 441.952 416.294 433.064 434.335 422.201ZM424.727 328.01C442.449 317.301 457.068 308.192 457.213 307.768C457.496 306.942 393.185 267.83 391.545 267.83C390.376 267.83 324.954 306.984 325.004 307.654C325.06 308.398 390.147 347.421 391.384 347.453C392 347.467 407.004 338.719 424.727 328.01ZM46.8992 238.27L43.8746 235.57L43.583 219.817C43.2504 201.863 43.9342 199.214 49.501 196.888C53.5603 195.192 56.6999 195.991 59.6224 199.465C61.8884 202.158 61.9351 202.528 61.9351 217.827C61.9351 226.414 61.5362 234.49 61.0487 235.772C60.0394 238.427 55.7437 240.971 52.2708 240.971C50.9801 240.971 48.5628 239.755 46.8992 238.27ZM423.929 222.747C411.709 210.582 405.434 203.667 405.057 201.951C404.318 198.588 406.807 193.376 409.802 192.011C415.298 189.507 417.298 190.419 426.802 199.756C431.727 204.595 436.045 208.554 436.397 208.554C436.748 208.554 437.036 185.242 437.036 156.75V104.945L415.194 104.652L393.351 104.359L390.65 101.334C386.958 97.2007 386.961 92.7014 390.657 89.006L393.364 86.2987H421.557H449.751L452.079 88.6273C453.36 89.908 454.667 92.2524 454.984 93.837C455.301 95.4217 455.56 121.959 455.56 152.81V208.901L464.692 199.929C473.305 191.467 474.045 190.957 477.701 190.957C483.713 190.957 488.174 196.565 486.725 202.303C486.435 203.449 477.927 212.618 467.816 222.679C450.25 240.159 449.275 240.971 445.836 240.971C442.396 240.971 441.422 240.161 423.929 222.747ZM240.567 230.777C236.57 228.665 232.532 224.11 231.888 220.986C231.634 219.752 231.234 217.805 231 216.658C230.672 215.053 228.727 213.791 222.523 211.162L214.471 207.75L211.304 210.165C206.832 213.577 199.635 214.102 194.097 211.421C187.873 208.408 171.015 190.666 169.503 185.537C168.012 180.481 168.825 175.349 171.815 170.943L174.1 167.576L170.856 159.585C167.617 151.607 167.606 151.593 163.683 150.918C159.17 150.14 153.981 146.311 151.347 141.814C149.885 139.317 149.456 136.497 149.152 127.357C148.944 121.111 149.06 113.715 149.409 110.921C150.443 102.64 155.242 97.2011 163.324 95.149C167.544 94.0775 167.672 93.9332 170.81 86.7151C172.566 82.676 174.002 79.073 174.002 78.7084C174.002 78.3437 172.996 76.5625 171.766 74.7502C168.815 70.4011 168.017 65.253 169.517 60.2448C170.429 57.2004 173.037 53.8313 180.311 46.3028C190.426 35.8326 195.373 32.5803 201.184 32.5803C204.86 32.5803 210.517 34.5899 212.892 36.7398C214.152 37.8799 215.35 37.6429 222.116 34.9148C230.442 31.5576 230.859 31.1698 231.806 25.8928C232.599 21.4785 236.352 17.0336 241.112 14.8714C246.605 12.3762 271.816 12.3762 277.309 14.8714C281.645 16.8409 285.852 21.4485 286.567 25.0107C287.836 31.3301 288.159 31.6615 296.233 34.901C302.865 37.5624 304.3 37.859 305.495 36.8162C310.637 32.3289 318.219 31.3893 324.551 34.4547C326.741 35.5145 332.618 40.6459 338.077 46.2635C345.492 53.8951 348.005 57.1321 348.918 60.2285C350.409 65.285 349.595 70.4168 346.604 74.8249L344.317 78.1946L347.484 86.1073L350.65 94.0199L355.02 95.1295C363.144 97.1922 367.974 102.612 368.999 110.814C369.34 113.548 369.472 120.925 369.291 127.207C369.021 136.566 368.628 139.195 367.11 141.771C364.432 146.315 359.26 150.139 354.738 150.918C350.815 151.593 350.804 151.607 347.565 159.585L344.32 167.576L346.606 170.943C349.518 175.235 350.39 180.42 349.042 185.426C348.216 188.495 345.897 191.51 338.559 199.055C326.542 211.41 323.066 213.538 315.762 213.01C311.73 212.718 309.51 211.99 307.14 210.183L303.95 207.75L295.898 211.162C289.694 213.791 287.748 215.053 287.421 216.658C287.187 217.805 286.787 219.752 286.533 220.986C285.872 224.192 281.792 228.713 277.654 230.823C274.548 232.408 272.213 232.63 259.016 232.594C245.981 232.559 243.471 232.312 240.567 230.777ZM269.398 209.142C269.398 202.007 271.338 199.946 280.775 197.052C284.96 195.768 291.656 193.038 295.655 190.985C304.889 186.243 308.003 186.154 312.807 190.494C314.78 192.277 316.772 193.735 317.233 193.735C317.695 193.735 320.963 190.822 324.496 187.262L330.92 180.788L327.449 177.233C322.152 171.808 322.102 168.967 327.134 159.467C329.427 155.137 332.221 148.468 333.342 144.648C336.069 135.35 338.128 133.309 345.304 132.79L350.902 132.385V122.771V113.158H345.823C338.867 113.158 336.041 110.468 333.347 101.282C332.253 97.5513 329.504 90.9544 327.237 86.6217C324.971 82.289 323.117 77.9158 323.117 76.9034C323.117 74.4158 324.66 71.5795 327.848 68.2047L330.505 65.3928L323.583 58.5166L316.661 51.6403L313.637 54.5569C309.936 58.1266 306.402 59.5515 303.524 58.6346C302.329 58.254 297.392 56.0327 292.553 53.6982C287.714 51.3637 281.529 48.9031 278.809 48.2301C271.968 46.5375 269.398 43.3827 269.398 36.677V31.6541H259.211H249.023V37.0849C249.023 43.88 246.636 46.6978 239.485 48.3466C236.835 48.9575 230.708 51.3665 225.868 53.7C221.029 56.0335 216.092 58.254 214.897 58.6346C212.019 59.5515 208.485 58.1266 204.784 54.5569L201.761 51.6403L194.838 58.5166L187.916 65.3928L190.573 68.2047C193.762 71.5795 195.304 74.4158 195.304 76.9034C195.304 77.9158 193.446 82.2974 191.174 86.6403C188.902 90.9832 186.123 97.7069 184.997 101.582C182.342 110.719 179.718 113.158 172.542 113.158H167.519V122.771V132.385L173.117 132.79C180.262 133.307 182.343 135.346 185.052 144.484C186.158 148.214 188.955 154.883 191.267 159.303C196.329 168.98 196.283 171.794 190.972 177.233L187.501 180.788L193.925 187.262C197.458 190.822 200.726 193.735 201.188 193.735C201.649 193.735 203.641 192.277 205.614 190.494C210.495 186.085 213.502 186.225 223.722 191.339C228.213 193.587 234.889 196.308 238.556 197.385C246.985 199.86 249.023 202.149 249.023 209.142V214.111H259.211H269.399L269.398 209.142ZM245 178.378C224.946 173.523 207.976 156.426 202.688 135.748C192.075 94.2533 229.733 55.3481 271.531 64.6234C313.942 74.0348 331.656 124.193 304.638 158.373C297.249 167.721 284.675 175.668 272.867 178.452C265.672 180.148 252.163 180.112 245 178.378ZM271.969 159.458C284.089 155.204 293.662 145.339 297.303 133.349C301.501 119.531 298.011 104.925 287.977 94.316C268.401 73.6172 235.097 79.3365 222.853 105.5C218.916 113.913 218.286 124.026 221.118 133.349C224.728 145.234 234.254 155.12 246.244 159.424C253.267 161.945 264.84 161.96 271.969 159.458ZM46.6487 170.198C43.4975 167.046 42.8524 163.624 44.6852 159.781C46.4306 156.121 50.8744 153.823 54.7676 154.567C58.4024 155.262 61.935 159.801 61.935 163.777C61.935 171.213 51.8852 175.434 46.6487 170.198ZM83.7247 133.281C80.282 129.838 79.6068 126.752 81.4869 123.053C82.0525 121.941 86.1075 117.384 90.4979 112.926L98.4803 104.822H80.2077H61.935V115.081C61.935 125.186 61.894 125.382 59.2277 128.048C57.2264 130.049 55.6406 130.755 53.1467 130.755C44.7541 130.755 43.4115 127.69 43.4115 108.527C43.4115 92.7711 44.1579 89.3038 47.9911 87.2523C49.0861 86.6663 59.3404 86.2987 74.5908 86.2987H99.4085L90.9616 77.7315C86.3158 73.0196 82.052 68.254 81.4866 67.1414C79.7726 63.7685 80.319 60.5511 83.1423 57.3913C85.3516 54.9185 86.5046 54.3876 89.6652 54.3876C93.4235 54.3876 93.8934 54.778 111.988 72.9367C128.875 89.8833 130.471 91.762 130.466 94.6809C130.463 96.4382 129.724 98.9179 128.825 100.191C127.925 101.465 119.668 109.919 110.475 118.978C96.4152 132.832 93.2229 135.535 90.3757 135.997C87.3863 136.483 86.6094 136.165 83.7247 133.281Z" fill="black"/>
</svg>
