<svg width="500" height="500" viewBox="0 0 500 500" fill="none" xmlns="http://www.w3.org/2000/svg">
<path d="M487.532 438.243C487.78 436.913 487.907 435.59 487.907 434.285V432.539C487.907 418.16 474.854 406.457 458.801 406.457H457.664V244.537C457.664 145.349 379.287 60.2501 280.908 46.0579C280.975 40.8015 280.14 31.4307 274.031 24.4223C269.156 18.8336 262.2 16 253.351 16C243.903 16 236.542 18.9544 231.467 24.7908C225.419 31.7389 224.584 40.8015 224.632 45.8646C125.551 59.3921 46.364 144.841 46.364 244.537V406.487C31.9141 406.813 16.1213 417.41 16.1213 432.539V434.285C16.1213 434.859 16.1455 435.427 16.206 436.007C6.80659 440.569 1 449.063 1 458.797C1 473.49 13.9439 485 30.4624 485H469.538C486.056 485 499 473.49 499 458.797C499 450.471 494.881 443.197 487.532 438.243ZM240.643 32.6814C243.359 29.594 247.514 28.0896 253.357 28.0896C258.607 28.0896 262.375 29.4732 264.879 32.331C267.879 35.7446 268.72 40.9466 268.829 44.7106C263.27 44.2454 257.676 43.9493 252.014 43.9493C246.867 43.9493 241.78 44.2091 236.717 44.5897C236.814 41.2668 237.522 36.2279 240.643 32.6814ZM58.4611 244.537C58.4611 142.358 147.096 56.0329 252.014 56.0329C356.932 56.0329 445.567 142.358 445.567 244.537V406.457H292.721C330.935 388.404 354.676 343.985 354.676 284.781C354.676 212.455 298.515 154.212 252.014 154.212C203.547 154.212 149.334 210.05 149.334 284.781C149.334 342.498 174.508 388.053 212.844 406.457H58.4611V244.537ZM264.287 220.587C264.752 222.514 266.144 224.085 267.988 224.798L284.906 231.299L266.156 247.866C264.014 249.751 263.494 252.874 264.885 255.352L271.938 267.87L256.411 286.823C254.288 289.409 254.676 293.215 257.258 295.324C258.389 296.242 259.738 296.696 261.087 296.696C262.841 296.696 264.577 295.94 265.769 294.484L283.914 272.335C285.499 270.408 285.729 267.713 284.513 265.544L277.835 253.684L300.384 233.758C301.969 232.363 302.707 230.236 302.332 228.157C301.957 226.079 300.523 224.351 298.552 223.596L280.497 216.654L303.076 191.272C325.443 213.228 342.585 247.388 342.585 284.787C342.585 343.767 314.58 403.273 252.02 403.273C199.537 403.273 161.437 353.44 161.437 284.787C161.437 218.062 210.128 166.302 252.02 166.302C265.756 166.302 280.479 172.609 294.009 183.279L265.648 215.149C264.323 216.63 263.821 218.66 264.287 220.587ZM28.2184 432.539C28.2184 425.343 37.3698 418.54 47.0475 418.54H52.4125H451.616H458.801C468.025 418.54 475.81 424.957 475.81 432.539V434.285C475.81 435.053 475.683 435.85 475.483 436.666H28.6841C28.3999 435.771 28.2184 434.968 28.2184 434.285V432.539ZM469.538 472.916H30.4624C20.7243 472.916 13.0971 466.718 13.0971 458.797C13.0971 453.909 15.9096 450.368 19.4964 448.06C20.3069 448.465 21.1961 448.749 22.1699 448.749H481.393C484.193 450.828 486.903 454.042 486.903 458.797C486.903 466.718 479.276 472.916 469.538 472.916Z" fill="black"/>
</svg>
