<svg width="500" height="500" viewBox="0 0 500 500" fill="none" xmlns="http://www.w3.org/2000/svg">
<path d="M220.238 490.85C216.639 489.223 213.389 485.782 212.009 482.137C211.436 480.625 210.968 474.414 210.968 468.334V457.28L207.308 456.631C199.37 455.223 181.648 449.808 171.645 445.734C165.85 443.374 160.702 441.443 160.205 441.443C159.707 441.443 156.359 445.452 152.764 450.352C144.2 462.024 138.542 464.895 130.625 461.586C127.452 460.259 92.9771 435.736 87.6878 431.042C83.7644 427.561 81.8571 422.469 82.6058 417.474C83.0489 414.518 85.0899 410.823 89.9247 404.224L96.629 395.072L94.5181 392.496C93.3572 391.08 89.5859 386.467 86.1378 382.246C81.0297 375.993 71.2296 361.772 66.0203 353.053C65.0727 351.467 64.3395 351.559 55.1339 354.42C49.7052 356.107 43.4079 357.488 41.14 357.488C35.8754 357.488 30.9335 354.473 28.5776 349.824C26.6696 346.058 11.5465 299.881 12.0794 299.447C12.6101 299.015 24.9231 295.009 25.7194 295.009C26.1329 295.009 29.853 305.443 33.9862 318.195C38.1195 330.947 41.6631 341.578 41.861 341.82C42.0591 342.063 46.5094 340.855 51.7511 339.136C62.6566 335.56 68.6209 335.199 72.9697 337.852C74.7816 338.957 78.3559 343.56 81.9671 349.439C88.7942 360.554 96.9677 371.714 104.977 380.859C114.514 391.746 114.384 396.584 104.178 410.582L97.852 419.258L100.009 420.925C107.191 426.476 135.045 446.319 135.623 446.297C136.005 446.282 139.129 442.335 142.564 437.527C149.081 428.404 153.86 424.847 159.598 424.847C161.06 424.847 166.959 426.777 172.707 429.135C185.034 434.193 198.798 438.649 209.107 440.917C223.738 444.136 226.525 448.078 226.559 465.604L226.581 476.587H250.001H273.42L273.422 465.116C273.424 447.455 275.932 444.231 292.629 440.425C303.168 438.023 316.529 433.598 329.427 428.236C343.242 422.493 346.683 423.656 357.178 437.615C360.578 442.136 363.947 445.78 364.665 445.713C366.226 445.566 401.251 420.135 401.251 419.149C401.251 418.772 398.402 414.551 394.92 409.77C384.623 395.628 384.878 392.677 397.736 377.224C406.146 367.118 410.409 361.091 420.162 345.517C426.606 335.227 432.409 333.876 447.929 339.049C452.973 340.73 457.402 341.711 457.847 341.245C458.288 340.782 461.821 330.52 465.696 318.439C469.572 306.358 473.085 296.095 473.503 295.633C474.097 294.976 486.515 298.26 487.929 299.447C488.104 299.595 484.468 311.131 479.847 325.083C473.397 344.562 470.831 351.066 468.794 353.107C463.477 358.435 458.5 358.737 445.21 354.542C440.138 352.94 435.67 351.63 435.281 351.63C434.892 351.63 432.516 355.035 430.001 359.196C423.645 369.712 417.602 378.065 409.827 387.081L403.184 394.785L406.469 399.322C414.808 410.838 415.953 412.678 416.847 415.998C417.975 420.19 416.804 425.371 413.889 429.078C411.7 431.863 375.377 458.48 370.062 461.195C362.108 465.257 355.535 462.014 346.559 449.595L340.103 440.663L332.773 443.896C324.174 447.691 303.839 454.265 295.132 456.067L289.033 457.329L289.011 468.178C288.985 480.748 287.409 485.566 282.071 489.374C278.808 491.703 278.6 491.72 250.976 491.946C229.265 492.125 222.523 491.884 220.238 490.85ZM230.972 412.972C213.083 410.954 192.127 404.695 175.739 396.476C146.658 381.89 118.481 353.808 103.938 324.918C100.531 318.148 93.871 301.744 93.871 300.119C93.871 299.296 107.41 294.559 108.016 295.171C108.193 295.351 109.732 299.012 111.434 303.307C130.734 351.995 169.354 384.581 220.971 395.732C229.367 397.546 234.024 397.892 250 397.892C270.542 397.892 279.703 396.557 296.414 391.129C338.065 377.6 372.706 344.605 388.106 303.795C389.625 299.769 391.189 296.095 391.582 295.633C392.118 295.001 404.434 298.222 405.888 299.375C406.023 299.482 405.307 301.976 404.295 304.917C379.713 376.397 307.242 421.577 230.972 412.972ZM8 273.533V265.723H250H492V273.533V281.342H250H8V273.533ZM39.2257 190.021V129.939L41.6209 127.543L44.0161 125.147H76.75H109.484V92.6298C109.484 68.109 109.784 59.7248 110.704 58.5345C111.374 57.6663 123.053 47.6981 136.656 36.3829C155.921 20.357 161.994 15.8098 164.129 15.8098C166.264 15.8098 172.337 20.357 191.602 36.3829C205.205 47.6981 216.884 57.6663 217.554 58.5345C218.422 59.6578 218.774 64.9851 218.774 77.0103V93.9076H250H281.226V53.35V12.7923L283.621 10.3962L286.016 8H335.871H385.726L388.121 10.3962L390.516 12.7923V72.8744V132.956H423.25H455.984L458.379 135.353L460.774 137.749V193.926V250.103H452.968H445.161V199.34V148.576H417.839H390.516V199.34V250.103H382.71H374.903V136.861V23.6195H335.871H296.839V136.861V250.103H289.032H281.226V179.815V109.527H250H218.774V179.815V250.103H210.968H203.161L203.135 158.094L203.11 66.0852L184.363 50.5005C174.052 41.929 164.948 34.9158 164.131 34.9158C163.315 34.9158 154.211 41.929 143.9 50.5005L125.153 66.0852L125.127 158.094L125.101 250.103H117.295H109.488V195.435V140.766H82.1657H54.8432V195.435V250.103H47.0366H39.2301L39.2257 190.021ZM312.452 132.956V125.147H320.258H328.065V132.956V140.766H320.258H312.452V132.956ZM343.677 132.956V125.147H351.484H359.29V132.956V140.766H351.484H343.677V132.956ZM140.71 125.147V117.337H164.129H187.548V125.147V132.956H164.129H140.71V125.147ZM312.452 93.9076V86.0978H320.258H328.065V93.9076V101.717H320.258H312.452V93.9076ZM343.677 93.9076V86.0978H351.484H359.29V93.9076V101.717H351.484H343.677V93.9076ZM140.71 86.0978V78.288H164.129H187.548V86.0978V93.9076H164.129H140.71V86.0978ZM312.452 54.8587V47.0489H320.258H328.065V54.8587V62.6685H320.258H312.452V54.8587ZM343.677 54.8587V47.0489H351.484H359.29V54.8587V62.6685H351.484H343.677V54.8587Z" fill="black"/>
</svg>
