<?xml version="1.0" encoding="UTF-8" standalone="no"?>
<!-- Created with Inkscape (http://www.inkscape.org/) -->

<svg
   version="1.1"
   id="svg2"
   width="1914.2933"
   height="662.216"
   viewBox="0 0 1914.2933 662.216"
   sodipodi:docname="RISE_V2_RGB.ai"
   xmlns:inkscape="http://www.inkscape.org/namespaces/inkscape"
   xmlns:sodipodi="http://sodipodi.sourceforge.net/DTD/sodipodi-0.dtd"
   xmlns="http://www.w3.org/2000/svg"
   xmlns:svg="http://www.w3.org/2000/svg">
  <defs
     id="defs6">
    <clipPath
       clipPathUnits="userSpaceOnUse"
       id="clipPath16">
      <path
         d="M 0,496.662 H 1435.72 V 0 H 0 Z"
         id="path14" />
    </clipPath>
  </defs>
  <sodipodi:namedview
     id="namedview4"
     pagecolor="#ffffff"
     bordercolor="#000000"
     borderopacity="0.25"
     inkscape:showpageshadow="2"
     inkscape:pageopacity="0.0"
     inkscape:pagecheckerboard="0"
     inkscape:deskcolor="#d1d1d1" />
  <g
     id="g8"
     inkscape:groupmode="layer"
     inkscape:label="RISE_V2_RGB"
     transform="matrix(1.3333333,0,0,-1.3333333,0,662.216)">
    <g
       id="g10">
      <g
         id="g12"
         clip-path="url(#clipPath16)">
        <g
           id="g18"
           transform="translate(252.4932,162.0843)">
          <path
             d="M 0,0 C -18.1,73.344 58.809,147.917 117.155,181.93 54.884,156.478 -90.144,76.602 0,0"
             style="fill:#3f4446;fill-opacity:1;fill-rule:evenodd;stroke:none"
             id="path20" />
        </g>
        <g
           id="g22"
           transform="translate(221.3882,231.6624)">
          <path
             d="M 0,0 C -11.682,25.867 -33.26,46.616 -62.225,63.6 -34.26,51.826 -9.65,37.825 9.389,20.104 5.279,13.556 2.078,6.855 0,0"
             style="fill:#3f4446;fill-opacity:1;fill-rule:evenodd;stroke:none"
             id="path24" />
        </g>
        <g
           id="g26"
           transform="translate(249.2085,290.5823)">
          <path
             d="M 0,0 C 0.085,-0.526 0.145,-1.056 0.178,-1.587 0.211,-2.12 0.219,-2.652 0.2,-3.185 0.181,-3.717 0.136,-4.248 0.064,-4.776 c -0.071,-0.529 -0.168,-1.052 -0.29,-1.571 -0.123,-0.519 -0.271,-1.03 -0.444,-1.534 -0.173,-0.505 -0.37,-0.999 -0.592,-1.484 -0.221,-0.485 -0.467,-0.958 -0.735,-1.419 -0.268,-0.461 -0.558,-0.908 -0.87,-1.34 -0.312,-0.433 -0.645,-0.849 -0.998,-1.249 -0.353,-0.399 -0.725,-0.781 -1.115,-1.144 -0.392,-0.363 -0.799,-0.707 -1.223,-1.03 -0.425,-0.323 -0.864,-0.625 -1.318,-0.905 -0.454,-0.28 -0.921,-0.538 -1.4,-0.772 -0.48,-0.234 -0.97,-0.445 -1.47,-0.631 -0.5,-0.187 -1.008,-0.348 -1.524,-0.485 -0.516,-0.136 -1.038,-0.247 -1.564,-0.332 -0.527,-0.086 -1.057,-0.145 -1.59,-0.179 -0.533,-0.033 -1.066,-0.04 -1.599,-0.021 -0.534,0.019 -1.065,0.064 -1.594,0.135 -0.529,0.071 -1.053,0.168 -1.573,0.29 -0.519,0.123 -1.032,0.27 -1.537,0.443 -0.504,0.173 -1,0.37 -1.485,0.591 -0.486,0.222 -0.96,0.466 -1.421,0.734 -0.462,0.268 -0.909,0.558 -1.342,0.869 -0.433,0.312 -0.85,0.644 -1.25,0.997 -0.401,0.353 -0.782,0.724 -1.146,1.114 -0.364,0.39 -0.708,0.797 -1.032,1.221 -0.324,0.424 -0.626,0.862 -0.906,1.316 -0.281,0.454 -0.539,0.92 -0.773,1.398 -0.235,0.479 -0.446,0.968 -0.632,1.468 -0.187,0.499 -0.349,1.006 -0.485,1.522 -0.137,0.515 -0.248,1.036 -0.334,1.562 -0.085,0.526 -0.144,1.055 -0.178,1.587 -0.033,0.532 -0.04,1.064 -0.021,1.597 0.019,0.533 0.064,1.064 0.135,1.592 0.071,0.528 0.168,1.052 0.29,1.571 0.123,0.518 0.271,1.03 0.444,1.534 0.173,0.504 0.37,0.999 0.592,1.484 0.222,0.485 0.467,0.958 0.735,1.419 0.268,0.461 0.558,0.907 0.87,1.34 0.312,0.432 0.645,0.848 0.999,1.248 0.353,0.4 0.725,0.781 1.115,1.145 0.39,0.363 0.798,0.707 1.222,1.03 0.425,0.323 0.864,0.625 1.318,0.905 0.454,0.281 0.921,0.537 1.401,0.772 0.479,0.235 0.969,0.445 1.469,0.631 0.5,0.187 1.008,0.348 1.524,0.484 0.516,0.137 1.038,0.248 1.565,0.333 0.527,0.086 1.056,0.145 1.589,0.178 0.533,0.034 1.066,0.041 1.6,0.022 0.533,-0.019 1.064,-0.064 1.593,-0.135 0.529,-0.071 1.054,-0.168 1.573,-0.291 0.52,-0.122 1.032,-0.27 1.537,-0.442 0.505,-0.173 1,-0.37 1.486,-0.591 0.486,-0.222 0.959,-0.467 1.421,-0.734 0.461,-0.268 0.908,-0.558 1.341,-0.87 0.433,-0.311 0.85,-0.643 1.25,-0.996 C -4.907,9.248 -4.525,8.877 -4.162,8.487 -3.797,8.097 -3.454,7.689 -3.13,7.266 -2.806,6.842 -2.504,6.403 -2.224,5.95 -1.943,5.497 -1.685,5.03 -1.45,4.551 -1.216,4.073 -1.005,3.583 -0.818,3.084 -0.632,2.585 -0.47,2.077 -0.333,1.562 -0.197,1.047 -0.085,0.526 0,0"
             style="fill:#3f4446;fill-opacity:1;fill-rule:nonzero;stroke:none"
             id="path28" />
        </g>
        <g
           id="g30"
           transform="translate(324.6304,162.0843)">
          <path
             d="m 0,0 c 9.789,39.685 -8.234,79.722 -36.076,113.504 4.278,5.195 8.788,10.237 13.467,15.109 C 23.702,92.786 53.914,45.817 0,0 m -49.528,128.598 c 4.371,3.381 8.865,6.654 13.452,9.82 -28.166,19.413 -59.563,34.705 -81.095,43.497 21.947,-12.772 46.511,-31.293 67.643,-53.317"
             style="fill:#007fff;fill-opacity:1;fill-rule:evenodd;stroke:none"
             id="path32" />
        </g>
        <g
           id="g34"
           transform="translate(355.7505,231.6624)">
          <path
             d="M 0,0 C 11.667,25.852 33.26,46.616 62.226,63.584 34.26,51.811 9.65,37.809 -9.388,20.088 -5.294,13.556 -2.078,6.855 0,0"
             style="fill:#007fff;fill-opacity:1;fill-rule:evenodd;stroke:none"
             id="path36" />
        </g>
        <g
           id="g38"
           transform="translate(347.7729,303.8016)">
          <path
             d="m 0,0 c 0.52,-0.123 1.032,-0.27 1.537,-0.443 0.505,-0.173 1,-0.37 1.486,-0.591 0.485,-0.221 0.959,-0.466 1.42,-0.734 0.462,-0.268 0.91,-0.558 1.342,-0.869 0.433,-0.312 0.85,-0.644 1.251,-0.997 0.4,-0.352 0.782,-0.724 1.146,-1.114 0.363,-0.39 0.707,-0.797 1.031,-1.221 0.324,-0.424 0.626,-0.862 0.907,-1.316 0.28,-0.453 0.538,-0.919 0.773,-1.398 0.234,-0.479 0.445,-0.968 0.632,-1.467 0.186,-0.5 0.348,-1.007 0.485,-1.522 0.136,-0.516 0.247,-1.036 0.333,-1.562 0.085,-0.527 0.145,-1.056 0.178,-1.588 0.034,-0.532 0.041,-1.064 0.022,-1.597 -0.019,-0.533 -0.064,-1.063 -0.135,-1.592 -0.072,-0.528 -0.168,-1.051 -0.291,-1.57 -0.122,-0.519 -0.27,-1.031 -0.444,-1.535 -0.173,-0.504 -0.37,-0.999 -0.591,-1.484 -0.222,-0.485 -0.467,-0.958 -0.735,-1.419 -0.268,-0.46 -0.558,-0.907 -0.871,-1.339 -0.312,-0.433 -0.644,-0.849 -0.997,-1.249 -0.354,-0.4 -0.726,-0.781 -1.116,-1.144 -0.391,-0.364 -0.799,-0.707 -1.223,-1.031 -0.424,-0.323 -0.864,-0.625 -1.318,-0.905 -0.454,-0.28 -0.921,-0.537 -1.4,-0.772 -0.479,-0.234 -0.969,-0.445 -1.469,-0.631 -0.5,-0.186 -1.008,-0.348 -1.524,-0.484 -0.516,-0.137 -1.038,-0.248 -1.565,-0.333 -0.527,-0.086 -1.056,-0.145 -1.59,-0.178 -0.532,-0.034 -1.065,-0.041 -1.599,-0.022 -0.533,0.019 -1.064,0.064 -1.593,0.135 -0.529,0.071 -1.054,0.168 -1.573,0.29 -0.52,0.123 -1.032,0.271 -1.537,0.443 -0.505,0.173 -1,0.37 -1.486,0.592 -0.486,0.221 -0.959,0.465 -1.421,0.733 -0.461,0.268 -0.909,0.558 -1.341,0.87 -0.433,0.312 -0.85,0.644 -1.251,0.996 -0.4,0.353 -0.782,0.724 -1.146,1.114 -0.364,0.39 -0.707,0.797 -1.031,1.221 -0.324,0.424 -0.626,0.862 -0.907,1.316 -0.281,0.454 -0.538,0.919 -0.773,1.398 -0.235,0.479 -0.446,0.968 -0.632,1.468 -0.187,0.499 -0.348,1.007 -0.485,1.522 -0.137,0.515 -0.248,1.036 -0.333,1.562 -0.086,0.526 -0.145,1.055 -0.179,1.587 -0.033,0.532 -0.04,1.065 -0.021,1.597 0.019,0.533 0.064,1.064 0.135,1.592 0.071,0.528 0.168,1.052 0.291,1.571 0.122,0.518 0.27,1.03 0.443,1.535 0.173,0.503 0.371,0.998 0.592,1.483 0.222,0.485 0.467,0.958 0.735,1.419 0.268,0.461 0.558,0.908 0.871,1.34 0.312,0.432 0.644,0.848 0.997,1.248 0.353,0.4 0.725,0.782 1.116,1.145 0.391,0.363 0.798,0.706 1.223,1.03 0.424,0.323 0.863,0.625 1.318,0.905 0.454,0.281 0.92,0.538 1.399,0.772 0.48,0.235 0.97,0.445 1.47,0.631 0.5,0.187 1.008,0.348 1.524,0.485 0.516,0.136 1.038,0.247 1.565,0.333 0.526,0.085 1.056,0.144 1.589,0.178 0.533,0.033 1.066,0.04 1.599,0.021 C -2.633,0.406 -2.102,0.361 -1.573,0.291 -1.044,0.219 -0.52,0.123 0,0"
             style="fill:#007fff;fill-opacity:1;fill-rule:nonzero;stroke:none"
             id="path40" />
        </g>
        <g
           id="g42"
           transform="translate(291.3862,122.2928)">
          <path
             d="m 0,0 c 78.278,0 141.734,26.005 141.734,58.082 0,18.889 -21.993,35.657 -56.053,46.262 C 113.661,94.4 131.376,79.691 131.376,63.261 131.376,33.336 72.552,9.083 0,9.083 c -72.568,0 -131.377,24.253 -131.377,54.178 0,16.415 17.715,31.139 45.696,41.068 -34.06,-10.59 -56.054,-27.358 -56.054,-46.247 C -141.735,26.005 -78.278,0 0,0"
             style="fill:#3f4446;fill-opacity:1;fill-rule:evenodd;stroke:none"
             id="path44" />
        </g>
        <g
           id="g46"
           transform="translate(291.938,319.6927)">
          <path
             d="m 0,0 c -14.225,0 -25.869,11.646 -25.869,25.874 v 2.93 c 0,14.227 11.644,25.873 25.869,25.873 14.225,0 25.87,-11.646 25.87,-25.873 v -2.93 C 25.881,11.646 14.236,0 0,0"
             style="fill:#ff1616;fill-opacity:1;fill-rule:nonzero;stroke:none"
             id="path48" />
        </g>
        <g
           id="g50"
           transform="translate(492.1572,283.1663)">
          <path
             d="m 0,0 h 10.51 c 5.64,0 9.229,3.674 9.229,8.801 0,5.127 -3.589,8.716 -9.229,8.716 H 0 Z M 8.289,-10.852 H 0 V -31.36 h -11.365 v 59.815 h 22.132 c 13.33,0 20.764,-8.716 20.764,-19.654 0,-8.032 -3.931,-14.868 -11.365,-17.944 L 32.983,-31.36 H 20.166 Z"
             style="fill:#007fff;fill-opacity:1;fill-rule:nonzero;stroke:none"
             id="path52" />
        </g>
        <path
           d="m 542.476,251.806 h -11.365 v 59.814 h 11.365 z"
           style="fill:#007fff;fill-opacity:1;fill-rule:nonzero;stroke:none"
           id="path54" />
        <g
           id="g56"
           transform="translate(594.6807,269.1526)">
          <path
             d="m 0,0 c 0,-9.912 -6.921,-18.372 -21.79,-18.372 -11.706,0 -22.302,6.238 -24.011,14.869 l 10.425,4.016 c 1.111,-4.529 6.323,-7.349 12.561,-7.349 6.921,0 10.681,2.734 10.681,6.409 0,3.589 -2.905,5.127 -12.646,8.032 -13.758,4.102 -19.397,9.314 -19.397,18.115 0,7.862 5.725,17.261 21.106,17.261 9.143,0 18.457,-4.871 20.166,-13.416 l -10.083,-3.759 c -0.769,3.759 -5.64,5.81 -9.998,5.896 -4.785,0.085 -9.143,-1.624 -9.143,-5.555 0,-2.819 2.222,-4.614 11.621,-7.519 C -8.716,15.039 0,11.108 0,0"
             style="fill:#007fff;fill-opacity:1;fill-rule:nonzero;stroke:none"
             id="path58" />
        </g>
        <g
           id="g60"
           transform="translate(641.2393,262.6585)">
          <path
             d="M 0,0 V -10.852 H -39.734 V 48.962 H -0.513 V 38.025 H -28.369 V 24.438 H -3.162 V 13.586 h -25.207 l 0,-13.586 z"
             style="fill:#007fff;fill-opacity:1;fill-rule:nonzero;stroke:none"
             id="path62" />
        </g>
        <g
           id="g64"
           transform="translate(682.9229,300.6834)">
          <path
             d="M 0,0 V -13.586 H 22.131 V -24.438 H 0 V -48.877 H -11.365 V 10.938 H 27.856 L 27.856,0 Z"
             style="fill:#007fff;fill-opacity:1;fill-rule:nonzero;stroke:none"
             id="path66" />
        </g>
        <g
           id="g68"
           transform="translate(746.0586,272.3997)">
          <path
             d="m 0,0 c 0,6.152 -3.588,10.852 -9.74,10.852 -6.153,0 -9.742,-4.7 -9.742,-10.852 0,-6.152 3.589,-10.852 9.742,-10.852 6.152,0 9.74,4.7 9.74,10.852 m 11.109,0 c 0,-11.877 -8.972,-21.277 -20.849,-21.277 -11.878,0 -20.85,9.4 -20.85,21.277 0,11.877 8.972,21.191 20.85,21.191 11.877,0 20.849,-9.314 20.849,-21.191"
             style="fill:#007fff;fill-opacity:1;fill-rule:nonzero;stroke:none"
             id="path70" />
        </g>
        <g
           id="g72"
           transform="translate(798.5146,292.993)">
          <path
             d="m 0,0 v -41.187 h -11.364 v 3.589 c -2.479,-2.563 -5.726,-4.187 -9.571,-4.187 -9.485,0 -15.295,6.751 -15.295,19.397 V 0 h 11.45 v -22.815 c 0,-5.981 2.734,-8.374 6.836,-8.374 4.015,0 6.58,2.991 6.58,8.118 l 0,23.071 z"
             style="fill:#007fff;fill-opacity:1;fill-rule:nonzero;stroke:none"
             id="path74" />
        </g>
        <g
           id="g76"
           transform="translate(841.9141,274.1942)">
          <path
             d="M 0,0 V -22.388 H -11.365 V 0.427 c 0,5.982 -2.478,8.374 -6.579,8.374 -4.102,0 -6.836,-2.734 -6.836,-8.801 V -22.388 H -36.145 V 18.799 H -24.78 V 15.21 c 2.477,2.563 5.725,4.187 9.57,4.187 C -5.811,19.397 0,12.646 0,0"
             style="fill:#007fff;fill-opacity:1;fill-rule:nonzero;stroke:none"
             id="path78" />
        </g>
        <g
           id="g80"
           transform="translate(877.6211,272.3997)">
          <path
             d="m 0,0 c 0,6.152 -3.589,10.852 -9.741,10.852 -6.153,0 -9.741,-4.7 -9.741,-10.852 0,-6.152 3.588,-10.852 9.741,-10.852 C -3.589,-10.852 0,-6.152 0,0 M 11.365,39.221 V -20.593 H 0 v 3.503 c -2.905,-2.563 -6.58,-4.187 -11.023,-4.187 -11.877,0 -19.568,9.4 -19.568,21.277 0,11.877 7.691,21.191 19.568,21.191 4.443,0 8.118,-1.623 11.023,-4.187 v 22.217 z"
             style="fill:#007fff;fill-opacity:1;fill-rule:nonzero;stroke:none"
             id="path82" />
        </g>
        <g
           id="g84"
           transform="translate(919.5664,269.9217)">
          <path
             d="m 0,0 c 0,0 -3.76,-0.769 -9.143,-2.136 -4.187,-1.111 -5.383,-3.845 -4.615,-5.896 0.684,-1.88 3.248,-2.393 5.811,-1.966 4.443,0.684 7.605,4.187 7.947,8.716 z m 11.279,7.605 v -25.72 H 0 v 3.845 c -1.538,-1.538 -5.64,-4.529 -12.646,-4.529 -8.033,0 -12.476,4.187 -12.818,10.425 0,8.972 6.152,12.134 14.868,14.014 6.922,1.538 9.826,1.538 10.34,3.845 0.598,2.478 -2.051,5.041 -6.067,4.87 -3.503,-0.085 -6.153,-1.709 -6.836,-4.87 l -9.486,2.051 c 0.77,5.383 6.836,12.133 17.09,12.133 8.973,0 16.834,-4.101 16.834,-16.064"
             style="fill:#007fff;fill-opacity:1;fill-rule:nonzero;stroke:none"
             id="path86" />
        </g>
        <g
           id="g88"
           transform="translate(965.6152,255.2244)">
          <path
             d="m 0,0 c -2.137,-2.051 -5.982,-3.845 -10.853,-3.845 -8.715,0 -13.586,4.529 -13.586,13.074 v 17.602 h -5.639 v 10.938 h 5.639 v 9.228 l 11.365,2.564 V 37.769 h 9.57 V 26.831 h -9.57 V 12.903 c 0,-3.674 0.939,-5.896 4.529,-5.896 1.537,0 3.674,0.683 4.785,1.709 z"
             style="fill:#007fff;fill-opacity:1;fill-rule:nonzero;stroke:none"
             id="path90" />
        </g>
        <path
           d="m 970.563,292.993 h 11.364 v -41.187 h -11.364 z m -0.683,12.048 c 0,3.589 2.819,6.409 6.409,6.409 3.503,0 6.322,-2.82 6.322,-6.409 0,-3.503 -2.819,-6.323 -6.322,-6.323 -3.59,0 -6.409,2.82 -6.409,6.323"
           style="fill:#007fff;fill-opacity:1;fill-rule:nonzero;stroke:none"
           id="path92" />
        <g
           id="g94"
           transform="translate(1018.752,272.3997)">
          <path
             d="m 0,0 c 0,6.152 -3.588,10.852 -9.74,10.852 -6.153,0 -9.742,-4.7 -9.742,-10.852 0,-6.152 3.589,-10.852 9.742,-10.852 6.152,0 9.74,4.7 9.74,10.852 m 11.109,0 c 0,-11.877 -8.972,-21.277 -20.849,-21.277 -11.878,0 -20.85,9.4 -20.85,21.277 0,11.877 8.972,21.191 20.85,21.191 11.877,0 20.849,-9.314 20.849,-21.191"
             style="fill:#007fff;fill-opacity:1;fill-rule:nonzero;stroke:none"
             id="path96" />
        </g>
        <g
           id="g98"
           transform="translate(1071.5498,274.1942)">
          <path
             d="M 0,0 V -22.388 H -11.364 V 0.427 c 0,5.982 -2.479,8.374 -6.58,8.374 -4.102,0 -6.836,-2.734 -6.836,-8.801 V -22.388 H -36.146 V 18.799 H -24.78 V 15.21 c 2.478,2.563 5.724,4.187 9.57,4.187 C -5.811,19.397 0,12.646 0,0"
             style="fill:#007fff;fill-opacity:1;fill-rule:nonzero;stroke:none"
             id="path100" />
        </g>
        <path
           d="m 1114.089,251.806 h -11.364 v 59.814 h 11.364 z"
           style="fill:#007fff;fill-opacity:1;fill-rule:nonzero;stroke:none"
           id="path102" />
        <path
           d="m 1134.849,251.806 h -11.364 v 59.814 h 11.364 z"
           style="fill:#007fff;fill-opacity:1;fill-rule:nonzero;stroke:none"
           id="path104" />
        <g
           id="g106"
           transform="translate(1187.0537,269.1526)">
          <path
             d="m 0,0 c 0,-9.912 -6.921,-18.372 -21.79,-18.372 -11.706,0 -22.302,6.238 -24.011,14.869 l 10.425,4.016 c 1.111,-4.529 6.323,-7.349 12.561,-7.349 6.921,0 10.681,2.734 10.681,6.409 0,3.589 -2.905,5.127 -12.646,8.032 -13.758,4.102 -19.397,9.314 -19.397,18.115 0,7.862 5.725,17.261 21.106,17.261 9.142,0 18.457,-4.871 20.166,-13.416 l -10.083,-3.759 c -0.769,3.759 -5.64,5.81 -9.997,5.896 -4.786,0.085 -9.144,-1.624 -9.144,-5.555 0,-2.819 2.222,-4.614 11.621,-7.519 C -8.716,15.039 0,11.108 0,0"
             style="fill:#007fff;fill-opacity:1;fill-rule:nonzero;stroke:none"
             id="path108" />
        </g>
        <g
           id="g110"
           transform="translate(1233.6123,262.6585)">
          <path
             d="m 0,0 v -10.852 h -39.733 v 59.814 h 39.22 V 38.025 H -28.369 V 24.438 H -3.161 V 13.586 H -28.369 V 0 Z"
             style="fill:#007fff;fill-opacity:1;fill-rule:nonzero;stroke:none"
             id="path112" />
        </g>
        <g
           id="g114"
           transform="translate(1253.085,283.1663)">
          <path
             d="m 0,0 h 10.511 c 5.638,0 9.228,3.674 9.228,8.801 0,5.127 -3.59,8.716 -9.228,8.716 H 0 Z M 8.288,-10.852 H 0 V -31.36 h -11.364 v 59.815 h 22.131 c 13.33,0 20.763,-8.716 20.763,-19.654 0,-8.032 -3.929,-14.868 -11.364,-17.944 L 32.983,-31.36 H 20.166 Z"
             style="fill:#007fff;fill-opacity:1;fill-rule:nonzero;stroke:none"
             id="path116" />
        </g>
        <g
           id="g118"
           transform="translate(531.0796,218.7024)">
          <path
             d="m 0,0 -11.463,-35.504 h -3.703 l -9.078,29.519 -9.079,-29.519 h -3.703 L -48.641,0 h 4.109 L -35.099,-29.468 -26.02,0 h 3.551 L -13.39,-29.468 -3.956,0 Z"
             style="fill:#000000;fill-opacity:1;fill-rule:nonzero;stroke:none"
             id="path120" />
        </g>
        <g
           id="g122"
           transform="translate(554.3916,196.6902)">
          <path
             d="M 0,0 V -13.492 H -3.652 V 0 c 0,5.326 -2.232,7.659 -6.188,7.659 -3.753,0 -6.492,-2.536 -6.492,-7.963 v -13.188 h -3.703 v 35.504 h 3.703 V 8.115 c 1.674,1.978 4.058,3.196 7.05,3.196 C -4.413,11.311 0,8.978 0,0"
             style="fill:#000000;fill-opacity:1;fill-rule:nonzero;stroke:none"
             id="path124" />
        </g>
        <g
           id="g126"
           transform="translate(562.3945,197.7552)">
          <path
             d="M 0,0 H 14.963 C 14.252,3.855 11.869,6.695 7.659,6.695 3.5,6.695 0.761,3.855 0,0 m 18.716,-2.384 c 0,-0.406 -0.051,-0.862 -0.051,-1.268 H -0.152 c 0.507,-4.412 3.55,-7.709 8.115,-7.709 3.043,0 5.275,1.369 6.746,3.652 l 3.195,-1.573 c -2.029,-3.448 -5.477,-5.63 -9.941,-5.63 -6.948,0 -11.919,5.579 -11.919,12.528 0,7 4.666,12.63 11.615,12.63 6.999,0 11.057,-5.63 11.057,-12.63"
             style="fill:#000000;fill-opacity:1;fill-rule:nonzero;stroke:none"
             id="path128" />
        </g>
        <g
           id="g130"
           transform="translate(597.9907,207.8992)">
          <path
             d="m 0,0 -0.71,-3.703 c -0.507,0.102 -1.065,0.153 -1.674,0.153 -3.753,0 -6.492,-2.587 -6.492,-7.963 v -13.188 h -3.703 v 24.448 h 3.703 v -2.841 c 1.673,1.978 4.108,3.196 7.05,3.196 C -1.217,0.102 -0.609,0.051 0,0"
             style="fill:#000000;fill-opacity:1;fill-rule:nonzero;stroke:none"
             id="path132" />
        </g>
        <g
           id="g134"
           transform="translate(603.9687,197.7552)">
          <path
             d="M 0,0 H 14.963 C 14.252,3.855 11.869,6.695 7.659,6.695 3.5,6.695 0.761,3.855 0,0 m 18.716,-2.384 c 0,-0.406 -0.051,-0.862 -0.051,-1.268 H -0.152 c 0.507,-4.412 3.55,-7.709 8.115,-7.709 3.043,0 5.275,1.369 6.746,3.652 l 3.195,-1.573 c -2.029,-3.448 -5.477,-5.63 -9.941,-5.63 -6.948,0 -11.919,5.579 -11.919,12.528 0,7 4.666,12.63 11.615,12.63 6.999,0 11.057,-5.63 11.057,-12.63"
             style="fill:#000000;fill-opacity:1;fill-rule:nonzero;stroke:none"
             id="path136" />
        </g>
        <g
           id="g138"
           transform="translate(667.354,193.0892)">
          <path
             d="m 0,0 c 0,-6.848 -6.441,-10.296 -12.934,-10.296 -8.013,0 -12.781,3.804 -14.252,7.811 l 3.5,1.217 c 1.42,-3.399 5.275,-5.377 10.651,-5.377 3.753,0 9.332,1.674 9.332,6.645 0,3.854 -2.992,4.92 -9.941,6.187 -6.948,1.269 -12.578,3.196 -12.629,9.739 -0.051,5.224 3.905,10.043 12.629,10.043 6.239,0 10.854,-3.297 12.173,-7.609 L -4.97,17.143 c -0.913,3.804 -4.768,5.174 -8.674,5.174 -5.528,0 -8.977,-2.181 -8.977,-6.391 0,-3.551 2.891,-4.97 9.586,-6.137 C -6.492,8.724 0,6.999 0,0"
             style="fill:#000000;fill-opacity:1;fill-rule:nonzero;stroke:none"
             id="path140" />
        </g>
        <g
           id="g142"
           transform="translate(689,190.0457)">
          <path
             d="m 0,0 3.195,-1.572 c -2.028,-3.449 -5.63,-5.63 -10.042,-5.63 -7,0 -11.767,5.579 -11.767,12.528 0,6.999 4.767,12.629 11.716,12.629 4.463,0 8.065,-2.283 10.093,-5.731 L 0,10.702 c -1.471,2.232 -3.854,3.703 -6.898,3.703 -4.97,0 -8.014,-4.058 -8.014,-9.079 0,-5.022 3.044,-8.978 8.065,-8.978 2.993,0 5.376,1.37 6.847,3.652"
             style="fill:#000000;fill-opacity:1;fill-rule:nonzero;stroke:none"
             id="path144" />
        </g>
        <path
           d="m 696.447,207.646 h 3.703 v -24.447 h -3.703 z m -0.203,6.695 c 0,1.166 0.913,2.079 2.028,2.079 1.167,0 2.08,-0.913 2.08,-2.079 0,-1.116 -0.913,-2.029 -2.08,-2.029 -1.115,0 -2.028,0.913 -2.028,2.029"
           style="fill:#000000;fill-opacity:1;fill-rule:nonzero;stroke:none"
           id="path146" />
        <g
           id="g148"
           transform="translate(708.6152,197.7552)">
          <path
             d="M 0,0 H 14.963 C 14.252,3.855 11.869,6.695 7.659,6.695 3.5,6.695 0.761,3.855 0,0 m 18.716,-2.384 c 0,-0.406 -0.051,-0.862 -0.051,-1.268 H -0.152 c 0.507,-4.412 3.55,-7.709 8.115,-7.709 3.043,0 5.275,1.369 6.746,3.652 l 3.195,-1.573 c -2.029,-3.448 -5.477,-5.63 -9.941,-5.63 -6.948,0 -11.919,5.579 -11.919,12.528 0,7 4.666,12.63 11.615,12.63 6.999,0 11.057,-5.63 11.057,-12.63"
             style="fill:#000000;fill-opacity:1;fill-rule:nonzero;stroke:none"
             id="path150" />
        </g>
        <g
           id="g152"
           transform="translate(751.9199,196.6902)">
          <path
             d="M 0,0 V -13.492 H -3.652 V 0 c 0,5.326 -2.283,7.659 -6.239,7.659 -3.753,0 -6.492,-2.587 -6.492,-7.963 v -13.188 h -3.652 v 24.448 h 3.652 V 8.115 c 1.725,1.978 4.109,3.196 7.101,3.196 C -4.464,11.311 0,8.978 0,0"
             style="fill:#000000;fill-opacity:1;fill-rule:nonzero;stroke:none"
             id="path154" />
        </g>
        <g
           id="g156"
           transform="translate(774.8359,190.0457)">
          <path
             d="m 0,0 3.195,-1.572 c -2.028,-3.449 -5.63,-5.63 -10.042,-5.63 -7,0 -11.767,5.579 -11.767,12.528 0,6.999 4.767,12.629 11.717,12.629 4.462,0 8.064,-2.283 10.092,-5.731 L 0,10.702 c -1.471,2.232 -3.854,3.703 -6.897,3.703 -4.971,0 -8.014,-4.058 -8.014,-9.079 0,-5.022 3.043,-8.978 8.064,-8.978 2.993,0 5.376,1.37 6.847,3.652"
             style="fill:#000000;fill-opacity:1;fill-rule:nonzero;stroke:none"
             id="path158" />
        </g>
        <g
           id="g160"
           transform="translate(784.7676,197.7552)">
          <path
             d="M 0,0 H 14.963 C 14.253,3.855 11.869,6.695 7.659,6.695 3.5,6.695 0.761,3.855 0,0 m 18.716,-2.384 c 0,-0.406 -0.051,-0.862 -0.051,-1.268 H -0.152 c 0.507,-4.412 3.55,-7.709 8.115,-7.709 3.044,0 5.275,1.369 6.746,3.652 l 3.195,-1.573 c -2.028,-3.448 -5.477,-5.63 -9.941,-5.63 -6.948,0 -11.919,5.579 -11.919,12.528 0,7 4.666,12.63 11.615,12.63 6.999,0 11.057,-5.63 11.057,-12.63"
             style="fill:#000000;fill-opacity:1;fill-rule:nonzero;stroke:none"
             id="path162" />
        </g>
        <g
           id="g164"
           transform="translate(857.5859,218.7024)">
          <path
             d="M 0,0 V -35.504 H -3.702 V -7.05 L -16.23,-26.628 h -2.486 L -31.143,-7.05 v -28.454 h -3.702 V 0 h 3.399 L -17.447,-22.114 -3.398,0 Z"
             style="fill:#000000;fill-opacity:1;fill-rule:nonzero;stroke:none"
             id="path166" />
        </g>
        <g
           id="g168"
           transform="translate(866.3447,197.7552)">
          <path
             d="M 0,0 H 14.963 C 14.253,3.855 11.869,6.695 7.659,6.695 3.5,6.695 0.761,3.855 0,0 m 18.716,-2.384 c 0,-0.406 -0.051,-0.862 -0.051,-1.268 H -0.152 c 0.507,-4.412 3.55,-7.709 8.115,-7.709 3.044,0 5.275,1.369 6.746,3.652 l 3.195,-1.573 c -2.028,-3.448 -5.477,-5.63 -9.941,-5.63 -6.948,0 -11.919,5.579 -11.919,12.528 0,7 4.666,12.63 11.615,12.63 6.999,0 11.057,-5.63 11.057,-12.63"
             style="fill:#000000;fill-opacity:1;fill-rule:nonzero;stroke:none"
             id="path170" />
        </g>
        <g
           id="g172"
           transform="translate(892.3027,197.7552)">
          <path
             d="M 0,0 H 14.963 C 14.253,3.855 11.869,6.695 7.659,6.695 3.5,6.695 0.761,3.855 0,0 m 18.716,-2.384 c 0,-0.406 -0.051,-0.862 -0.051,-1.268 H -0.152 c 0.507,-4.412 3.55,-7.709 8.115,-7.709 3.044,0 5.275,1.369 6.746,3.652 l 3.195,-1.573 c -2.028,-3.448 -5.477,-5.63 -9.941,-5.63 -6.948,0 -11.919,5.579 -11.919,12.528 0,7 4.666,12.63 11.615,12.63 6.999,0 11.057,-5.63 11.057,-12.63"
             style="fill:#000000;fill-opacity:1;fill-rule:nonzero;stroke:none"
             id="path174" />
        </g>
        <g
           id="g176"
           transform="translate(928.2031,184.72)">
          <path
             d="m 0,0 c -1.725,-1.42 -4.159,-2.08 -5.731,-1.876 -3.196,0.355 -5.174,2.333 -5.174,7.962 v 13.137 h -3.753 v 3.703 h 3.753 v 5.376 l 3.703,1.014 v -6.39 h 5.173 V 19.223 H -7.202 V 6.188 c 0,-2.029 0.101,-3.195 0.964,-3.956 0.811,-0.66 2.84,-0.711 4.361,0.558 z"
             style="fill:#000000;fill-opacity:1;fill-rule:nonzero;stroke:none"
             id="path178" />
        </g>
        <g
           id="g180"
           transform="translate(948.79,190.1473)">
          <path
             d="m 0,0 c 0,-5.123 -4.515,-7.354 -8.927,-7.354 -4.718,0 -8.318,2.333 -9.637,5.731 l 3.347,1.37 c 0.761,-2.182 3.044,-3.45 6.29,-3.45 2.029,0 5.224,0.71 5.224,3.703 0,1.927 -1.268,2.688 -5.579,3.601 -3.653,0.71 -8.319,1.674 -9.029,6.239 -0.608,4.362 3.043,8.014 8.471,8.014 4.26,0 7.506,-2.08 8.622,-5.275 L -4.616,11.26 c -0.609,1.775 -2.435,2.84 -5.173,2.942 -3.551,0.101 -5.225,-1.776 -4.869,-3.754 0.304,-1.927 2.536,-2.485 6.086,-3.297 C -4.464,6.289 0,4.666 0,0"
             style="fill:#000000;fill-opacity:1;fill-rule:nonzero;stroke:none"
             id="path182" />
        </g>
        <g
           id="g184"
           transform="translate(988.5908,193.6468)">
          <path
             d="M 0,0 C 0,3.652 -2.333,6.797 -7.608,6.797 H -16.84 V -6.796 h 9.435 C -2.384,-6.796 0,-3.703 0,0 m -16.84,21.354 v -11.21 h 8.065 c 5.021,0 6.746,2.536 6.746,5.63 0,3.094 -1.369,5.63 -6.391,5.63 z M 3.956,0 c 0,-5.681 -3.5,-10.448 -11.26,-10.448 h -13.238 v 35.504 h 12.376 c 7.101,0 10.093,-4.159 10.093,-9.282 0,-2.941 -1.369,-5.427 -3.753,-6.999 C 1.825,7.152 3.956,3.855 3.956,0"
             style="fill:#000000;fill-opacity:1;fill-rule:nonzero;stroke:none"
             id="path186" />
        </g>
        <g
           id="g188"
           transform="translate(1017.3877,207.6458)">
          <path
             d="m 0,0 v -24.447 h -3.651 v 2.84 c -1.674,-1.978 -3.956,-3.246 -6.95,-3.246 -4.818,0 -9.433,2.384 -9.433,11.361 V 0 h 3.702 v -13.492 c 0,-5.325 2.232,-7.658 6.188,-7.658 3.753,0 6.493,2.536 6.493,7.962 l 0,13.188 z"
             style="fill:#000000;fill-opacity:1;fill-rule:nonzero;stroke:none"
             id="path190" />
        </g>
        <g
           id="g192"
           transform="translate(1040,190.1473)">
          <path
             d="m 0,0 c 0,-5.123 -4.515,-7.354 -8.927,-7.354 -4.718,0 -8.318,2.333 -9.637,5.731 l 3.347,1.37 c 0.761,-2.182 3.044,-3.45 6.29,-3.45 2.029,0 5.224,0.71 5.224,3.703 0,1.927 -1.268,2.688 -5.579,3.601 -3.652,0.71 -8.319,1.674 -9.029,6.239 -0.608,4.362 3.043,8.014 8.471,8.014 4.26,0 7.506,-2.08 8.622,-5.275 L -4.616,11.26 c -0.609,1.775 -2.435,2.84 -5.173,2.942 -3.551,0.101 -5.225,-1.776 -4.869,-3.754 0.304,-1.927 2.535,-2.485 6.086,-3.297 C -4.464,6.289 0,4.666 0,0"
             style="fill:#000000;fill-opacity:1;fill-rule:nonzero;stroke:none"
             id="path194" />
        </g>
        <path
           d="m 1044.759,207.646 h 3.703 v -24.447 h -3.703 z m -0.202,6.695 c 0,1.166 0.912,2.079 2.028,2.079 1.167,0 2.079,-0.913 2.079,-2.079 0,-1.116 -0.912,-2.029 -2.079,-2.029 -1.116,0 -2.028,0.913 -2.028,2.029"
           style="fill:#000000;fill-opacity:1;fill-rule:nonzero;stroke:none"
           id="path196" />
        <g
           id="g198"
           transform="translate(1074.2744,196.6902)">
          <path
             d="M 0,0 V -13.492 H -3.652 V 0 c 0,5.326 -2.283,7.659 -6.239,7.659 -3.753,0 -6.492,-2.587 -6.492,-7.963 v -13.188 h -3.651 v 24.448 h 3.651 V 8.115 c 1.725,1.978 4.109,3.196 7.101,3.196 C -4.464,11.311 0,8.978 0,0"
             style="fill:#000000;fill-opacity:1;fill-rule:nonzero;stroke:none"
             id="path200" />
        </g>
        <g
           id="g202"
           transform="translate(1082.5313,197.7552)">
          <path
             d="M 0,0 H 14.963 C 14.253,3.855 11.869,6.695 7.659,6.695 3.5,6.695 0.761,3.855 0,0 m 18.716,-2.384 c 0,-0.406 -0.051,-0.862 -0.051,-1.268 H -0.152 c 0.507,-4.412 3.55,-7.709 8.115,-7.709 3.044,0 5.275,1.369 6.746,3.652 l 3.195,-1.573 c -2.028,-3.448 -5.477,-5.63 -9.941,-5.63 -6.948,0 -11.919,5.579 -11.919,12.528 0,7 4.666,12.63 11.615,12.63 6.999,0 11.057,-5.63 11.057,-12.63"
             style="fill:#000000;fill-opacity:1;fill-rule:nonzero;stroke:none"
             id="path204" />
        </g>
        <g
           id="g206"
           transform="translate(1122.8447,190.1473)">
          <path
             d="m 0,0 c 0,-5.123 -4.515,-7.354 -8.927,-7.354 -4.718,0 -8.318,2.333 -9.637,5.731 l 3.347,1.37 c 0.761,-2.182 3.044,-3.45 6.29,-3.45 2.029,0 5.224,0.71 5.224,3.703 0,1.927 -1.268,2.688 -5.579,3.601 -3.653,0.71 -8.319,1.674 -9.029,6.239 -0.608,4.362 3.043,8.014 8.471,8.014 4.26,0 7.506,-2.08 8.622,-5.275 L -4.616,11.26 c -0.609,1.775 -2.435,2.84 -5.173,2.942 -3.551,0.101 -5.225,-1.776 -4.869,-3.754 0.304,-1.927 2.536,-2.485 6.086,-3.297 C -4.464,6.289 0,4.666 0,0"
             style="fill:#000000;fill-opacity:1;fill-rule:nonzero;stroke:none"
             id="path208" />
        </g>
        <g
           id="g210"
           transform="translate(1144.4424,190.1473)">
          <path
             d="m 0,0 c 0,-5.123 -4.515,-7.354 -8.927,-7.354 -4.718,0 -8.318,2.333 -9.637,5.731 l 3.347,1.37 c 0.761,-2.182 3.044,-3.45 6.29,-3.45 2.029,0 5.224,0.71 5.224,3.703 0,1.927 -1.268,2.688 -5.579,3.601 -3.653,0.71 -8.319,1.674 -9.029,6.239 -0.608,4.362 3.043,8.014 8.471,8.014 4.26,0 7.506,-2.08 8.622,-5.275 L -4.616,11.26 c -0.609,1.775 -2.435,2.84 -5.173,2.942 -3.551,0.101 -5.225,-1.776 -4.869,-3.754 0.304,-1.927 2.536,-2.485 6.086,-3.297 C -4.464,6.289 0,4.666 0,0"
             style="fill:#000000;fill-opacity:1;fill-rule:nonzero;stroke:none"
             id="path212" />
        </g>
      </g>
    </g>
  </g>
</svg>
