<svg width="500" height="500" viewBox="0 0 500 500" fill="none" xmlns="http://www.w3.org/2000/svg">
<path d="M250.587 491.244C246.602 490.077 241.683 484.454 240.873 480.139C240.525 478.282 240.392 472.342 240.579 466.939C240.857 458.896 241.287 456.614 242.952 454.347C246.915 448.95 250.096 448.148 267.542 448.146L283.371 448.145L293.241 425.328C298.67 412.779 304.935 398.263 307.164 393.071C310.125 386.175 311.873 383.331 313.652 382.521C315.319 381.761 327.295 381.412 351.642 381.412C391.597 381.412 390.065 381.14 392.96 388.72C394.936 393.895 395.963 394.131 405.648 391.632C426.569 386.235 444.892 367.372 449.895 346.082C454.502 326.479 448.894 305.079 435.32 290.467L429.295 283.981L422.63 285.652C418.965 286.572 414.783 287.185 413.338 287.017C410.756 286.715 410.643 286.944 406.982 299.958C404.931 307.244 402.598 315.523 401.797 318.354C399.244 327.373 390.794 334.258 382.172 334.345L378.311 334.384L370.516 347.199C365.602 355.278 361.893 360.329 360.482 360.865C357.29 362.079 324.387 353.061 322.394 350.427C321.291 348.969 320.956 345.147 320.932 333.759L320.902 318.982L316.634 315.973C311.346 312.246 308.145 306.029 308.145 299.489C308.145 294.603 340.193 175.785 342.917 170.572C344.678 167.203 348.981 163.23 353.154 161.123C355.569 159.903 358.308 159.542 363.36 159.775L370.266 160.094L372.047 153.724C373.026 150.221 373.843 147.297 373.862 147.226C373.88 147.155 371.841 146.58 369.33 145.947C363.626 144.511 358.597 139.704 357.679 134.81C356.86 130.443 360.518 115.704 363.548 111.165C366.413 106.872 371.5 104.436 376.152 105.129C381.35 105.904 438.966 121.895 441.559 123.283C447.528 126.478 448.894 134.595 445.428 146.267C442.454 156.28 441.231 158.174 436.143 160.637C431.966 162.659 431.174 162.739 426.227 161.632C423.269 160.97 420.633 160.646 420.367 160.911C419.621 161.657 416.909 172.539 417.358 172.988C417.576 173.206 420.139 174.594 423.053 176.072C434.662 181.96 437.034 190.842 431.892 209.181C430.228 215.118 428.863 220.296 428.86 220.687C428.856 221.078 430.201 222.095 431.849 222.947C438.551 226.412 445.112 235.154 447.406 243.673C448.102 246.26 449.473 248.363 451.188 249.474C455.82 252.474 468.072 264.839 473.012 271.498C478.3 278.626 484.475 290.541 487.537 299.522C495.316 322.338 494.151 349.361 484.389 372.506C472.862 399.838 446.429 423.224 418.253 431.019C414.657 432.014 412.25 433.183 412.501 433.813C412.739 434.409 414.165 437.877 415.67 441.521L418.406 448.145L434.18 448.146C451.565 448.148 454.754 448.954 458.715 454.346C460.446 456.703 460.796 458.844 461.074 468.789C461.369 479.313 461.191 480.838 459.265 484.265C458.089 486.356 455.734 488.911 454.031 489.941C451.042 491.75 447.489 491.822 352.306 491.982C294.491 492.08 252.398 491.774 250.587 491.244ZM447.988 470.226V462.375L351.078 462.125L254.168 461.875V470.226V478.577L351.078 478.327L447.988 478.077V470.226ZM392.685 421.64L381.255 395.136L350.852 395.389L320.449 395.642L309.389 421.093C303.306 435.091 298.329 446.905 298.329 447.345C298.329 447.785 322.131 448.145 351.222 448.145H404.115L392.685 421.64ZM429.342 412.362C456.758 398.872 475.246 372.638 479.028 341.858C481.518 321.6 475.844 298.945 463.866 281.312C460.671 276.608 448.63 263.647 447.456 263.647C447.07 263.647 446.218 264.942 445.563 266.524C444.907 268.107 443.325 270.819 442.048 272.55L439.725 275.699L445.329 281.838C469.073 307.849 471.417 346.377 450.998 374.992C440.898 389.146 422.839 401.604 407.507 404.994C404.133 405.74 401.372 406.812 401.37 407.375C401.369 407.938 402.521 411.118 403.932 414.44L406.496 420.482L413.503 418.595C417.357 417.557 424.485 414.753 429.342 412.362ZM360.057 339.182C363.365 333.97 364.645 331.158 363.835 330.881C363.161 330.65 356.868 328.879 349.851 326.945C342.834 325.011 336.321 323.196 335.376 322.913C333.831 322.449 333.66 323.263 333.674 331.05C333.681 335.809 334.013 340.176 334.41 340.753C334.965 341.56 351.074 346.58 354.415 346.986C354.765 347.029 357.304 343.517 360.057 339.182ZM386.056 319.34C387.997 317.596 389.486 313.544 393.139 300.061L397.764 282.99L394.907 280.967C389.817 277.361 385.395 272.109 382.806 266.591C380.671 262.041 380.274 259.807 380.274 252.361C380.274 244.84 380.663 242.699 382.894 237.939C387.899 227.261 397.285 220.346 409.646 218.229L415.952 217.148L418.995 206.088C422.274 194.174 422.203 190.877 418.617 188.528C417.438 187.755 404.161 183.75 389.112 179.627C359.77 171.588 358.592 171.473 355.198 176.305C352.538 180.093 320.486 298.172 321.27 301.296C321.624 302.705 322.9 304.501 324.106 305.286C326.49 306.838 377.931 321.365 381.446 321.478C382.63 321.517 384.705 320.554 386.056 319.34ZM423.723 271.368C428.691 268.963 433.278 263.189 434.845 257.368C437.273 248.352 431.618 237.258 422.473 233.093C410.698 227.73 396.286 235.159 393.381 248.09C389.602 264.908 407.965 278.996 423.723 271.368ZM408.237 257.038C404.398 252.158 407.902 245.001 414.131 245.001C420.36 245.001 423.864 252.158 420.025 257.038C418.377 259.133 417.084 259.722 414.131 259.722C411.178 259.722 409.885 259.133 408.237 257.038ZM405.674 163.397C406.598 160.076 407.001 157.054 406.571 156.681C406.141 156.308 401.458 154.86 396.165 153.462C389.236 151.633 386.433 151.246 386.158 152.082C384.884 155.941 382.772 163.914 382.976 164.092C383.649 164.677 400.183 169.245 401.948 169.333C403.645 169.418 404.283 168.403 405.674 163.397ZM430.814 148.578C430.814 148.442 431.672 145.33 432.721 141.663L434.627 134.996L432.476 134.186C427.171 132.19 374.806 118.147 374.354 118.599C374.076 118.877 373.026 122.072 372.02 125.698C370.493 131.206 370.417 132.377 371.558 132.814C372.309 133.103 385.176 136.778 400.151 140.981C424.575 147.836 430.814 149.382 430.814 148.578ZM107.586 417.628C91.7084 415.953 75.8172 410.454 60.4756 401.326C50.9097 395.634 32.7 378.073 26.5965 368.654C13.012 347.689 6.99158 325.624 8.13715 301C9.40767 273.69 19.3101 250.032 37.5571 230.714C50.6043 216.9 64.7303 207.322 80.2197 201.787L86.3532 199.595V172.357V145.12L82.6911 144.433C77.6002 143.478 75.7499 142.319 73.5465 138.705C71.9168 136.032 71.6399 133.726 71.6399 122.82C71.6399 111.752 71.9022 109.632 73.6205 106.814C77.0262 101.228 79.6219 100.74 105.892 100.74H129.42L129.722 65.6555C130.01 32.2321 130.123 30.3568 132.122 26.0352C135.132 19.5241 140.643 13.8695 147.041 10.728L152.596 8H198.229C240.761 8 244.193 8.12716 248.712 9.87029C254.865 12.2434 261.45 18.2886 264.805 24.6439L267.416 29.5902L267.688 94.0027L267.961 158.415L274.302 158.819C281.547 159.28 285.068 161.296 287.822 166.561C289.261 169.311 289.53 171.841 289.294 180.407C288.967 192.302 287.746 195.035 281.337 198.221L277.72 200.02V291.491C277.72 370.994 277.521 383.727 276.197 388.811C269.972 412.719 244.726 424.693 222.246 414.401C212.167 409.787 203.837 399.778 201.136 389.038L199.969 384.397L194.438 389.359C176.536 405.416 153.804 415.385 129.752 417.725C119.041 418.767 118.347 418.764 107.586 417.628ZM143.445 402.19C162.058 397.212 176.254 388.905 190.133 374.869L199.211 365.689V331.448V297.208L195.534 295.038C184.569 288.569 170.312 286.152 156.839 288.479C145.831 290.38 138.162 294.221 127.08 303.383C108.122 319.057 97.6725 324.416 82.0045 326.501C62.4847 329.099 45.2674 324.479 29.0888 312.303C25.0875 309.291 21.5057 306.827 21.1294 306.827C20.753 306.827 20.7477 309.808 21.1183 313.452C23.5845 337.754 32.2311 357.129 48.0834 373.876C62.8871 389.515 80.0797 399.016 101.688 403.499C111.45 405.524 133.574 404.83 143.445 402.19ZM249.657 402.526C254.693 400.089 259.84 394.851 262.11 389.853C263.74 386.265 263.941 383.082 263.96 360.558L263.982 335.287H238.407H212.832L213.137 361.048C213.423 385.274 213.568 387.043 215.564 390.735C218.365 395.918 223.216 400.454 228.653 402.978C234.134 405.521 243.9 405.311 249.657 402.526ZM263.981 311.244V299.958H255.22C246.924 299.958 246.351 299.821 244.425 297.372C243.306 295.95 242.391 294.243 242.391 293.579C242.391 292.915 243.306 291.208 244.425 289.786C246.351 287.338 246.924 287.2 255.22 287.2H263.981V277.386V267.573H255.219C245.987 267.573 244.21 266.85 242.843 262.542C242.413 261.188 242.854 259.571 244.107 257.886C245.907 255.473 246.612 255.287 255.006 255.023L263.981 254.741V245.553V236.364L255.183 236.021C245.215 235.632 243.045 234.412 243.045 229.193C243.045 224.011 246.016 222.43 255.748 222.43H263.981V211.144V199.858H238.466H212.95V261.194V322.529H238.466H263.981V311.244ZM86.6445 312.236C95.1922 310.009 102.739 305.769 112.919 297.474C130.386 283.24 137.961 278.957 150.827 276.043C164.111 273.033 182.479 274.491 194.112 279.477C196.466 280.486 198.576 281.312 198.802 281.312C199.027 281.312 199.211 273.677 199.211 264.345V247.377L192.791 240.344C181.096 227.529 163.988 216.52 149.036 212.185C139.917 209.542 140.393 211.479 140.097 175.753L139.838 144.411H119.72H99.6019L99.3425 175.753C99.0469 211.472 99.5203 209.539 90.4202 212.185C66.0626 219.266 43.5208 238.427 31.55 262.225C27.993 269.297 22.5643 285.312 22.5643 288.733C22.5643 290.595 39.2937 304.093 46.0898 307.715C49.2183 309.383 54.3684 311.374 57.5346 312.14C65.2253 314.002 79.6824 314.049 86.6445 312.236ZM200.192 213.842V200.347L196.059 198.354C189.476 195.182 187.925 191.538 187.925 179.249C187.925 167.399 189.41 163.602 195.27 160.469C198.378 158.807 201.259 158.641 226.919 158.641H255.149L255.127 98.5316C255.116 65.4717 254.701 36.6904 254.21 34.5731C253.191 30.1792 250.835 26.6851 246.921 23.7628C244.275 21.7874 243.134 21.7394 198.818 21.7394H153.424L149.716 24.5675C143.375 29.4042 143.273 30.085 143.273 67.3416V100.74H150.682C159.273 100.74 163.052 102.276 165.884 106.921C167.509 109.586 167.8 111.893 167.803 122.116C167.807 138.688 165.538 143.269 156.913 144.092L153.577 144.411L153.316 171.658L153.056 198.905L155.77 200.014C171.728 206.535 189.424 217.361 196.193 224.742C197.501 226.169 198.937 227.336 199.382 227.336C199.828 227.336 200.192 221.264 200.192 213.842ZM208.534 143.058C187.774 133.534 192.834 102.816 215.473 100.939C222.765 100.334 228.565 102.66 233.368 108.116C241.743 117.63 241.403 129.242 232.488 138.196C225.769 144.943 216.67 146.79 208.534 143.058ZM223.5 128.956C225.035 127.523 225.708 125.767 225.708 123.195C225.708 114.617 216.507 110.926 210.864 117.241C206.555 122.063 207.601 127.745 213.326 130.613C216.917 132.412 220.405 131.844 223.5 128.956ZM275.758 179.74V172.38H238.466H201.174V179.233V186.086L226.444 186.365C240.343 186.519 257.124 186.747 263.736 186.872L275.758 187.101V179.74ZM154.068 122.82V114.479H119.72H85.3719V122.82V131.162H119.72H154.068V122.82ZM33.078 97.3791C8.42745 90.7605 13.2541 54.2545 38.7567 54.4289C47.8657 54.4911 54.7772 58.8148 58.4801 66.7674C66.4395 83.8612 51.1873 102.241 33.078 97.3791ZM44.6896 82.6288C47.7865 79.5319 48.0288 73.2103 45.1606 70.342C40.7524 65.9339 34.2122 66.7326 31.1014 72.0591C26.102 80.6191 37.6874 89.631 44.6896 82.6288ZM74.3294 58.1218C65.0848 54.8227 59.3604 46.6599 59.4824 36.9504C59.6371 24.648 69.0855 15.3603 81.4463 15.3603C93.964 15.3603 103.177 24.7601 103.177 37.5318C103.177 52.6501 88.4504 63.1611 74.3294 58.1218ZM87.3096 43.845C91.5989 39.5557 91.025 33.0917 86.0815 30.0123C77.3549 24.5763 67.7863 36.1374 75.0228 43.374C78.1198 46.4709 84.4414 46.7133 87.3096 43.845Z" fill="black"/>
</svg>
