<svg width="498" height="443" viewBox="0 0 498 443" fill="none" xmlns="http://www.w3.org/2000/svg">
<path fill-rule="evenodd" clip-rule="evenodd" d="M180.658 372.913C148.862 244.073 283.965 113.073 386.46 53.3239C277.071 98.0345 22.3057 238.349 180.658 372.913Z" fill="#3F4446"/>
<path fill-rule="evenodd" clip-rule="evenodd" d="M126.018 250.688C105.496 205.248 67.5911 168.8 16.7095 138.964C65.8345 159.647 109.066 184.242 142.511 215.372C135.291 226.875 129.668 238.646 126.018 250.688Z" fill="#3F4446"/>
<path d="M174.889 147.185C175.038 148.109 175.144 149.041 175.201 149.973C175.259 150.91 175.273 151.844 175.24 152.78C175.207 153.715 175.128 154.648 175.001 155.575C174.876 156.505 174.706 157.423 174.492 158.335C174.276 159.247 174.016 160.144 173.712 161.03C173.408 161.917 173.062 162.785 172.672 163.637C172.284 164.489 171.852 165.319 171.381 166.129C170.91 166.939 170.401 167.724 169.852 168.483C169.304 169.244 168.719 169.975 168.099 170.677C167.479 171.378 166.826 172.049 166.141 172.687C165.452 173.325 164.737 173.929 163.992 174.496C163.246 175.064 162.474 175.594 161.677 176.086C160.879 176.578 160.059 177.031 159.218 177.442C158.374 177.853 157.514 178.224 156.635 178.551C155.757 178.879 154.865 179.162 153.958 179.403C153.052 179.642 152.135 179.837 151.211 179.986C150.285 180.137 149.354 180.241 148.418 180.3C147.481 180.358 146.545 180.371 145.609 180.337C144.671 180.304 143.738 180.225 142.809 180.1C141.879 179.975 140.959 179.805 140.045 179.591C139.134 179.375 138.233 179.116 137.345 178.812C136.46 178.508 135.589 178.162 134.737 177.774C133.883 177.384 133.05 176.956 132.241 176.485C131.429 176.014 130.644 175.505 129.883 174.958C129.123 174.41 128.39 173.827 127.687 173.207C126.983 172.587 126.314 171.935 125.674 171.25C125.035 170.565 124.43 169.85 123.861 169.105C123.292 168.36 122.762 167.591 122.27 166.793C121.776 165.996 121.323 165.177 120.912 164.338C120.499 163.496 120.128 162.637 119.802 161.759C119.473 160.882 119.189 159.992 118.95 159.085C118.709 158.18 118.514 157.265 118.363 156.341C118.214 155.417 118.11 154.488 118.05 153.553C117.992 152.619 117.98 151.684 118.013 150.748C118.047 149.812 118.126 148.879 118.251 147.951C118.375 147.024 118.546 146.103 118.76 145.192C118.976 144.282 119.236 143.382 119.54 142.497C119.844 141.612 120.19 140.742 120.58 139.89C120.97 139.038 121.4 138.207 121.871 137.397C122.342 136.588 122.851 135.804 123.399 135.043C123.947 134.285 124.532 133.554 125.154 132.851C125.774 132.148 126.428 131.479 127.113 130.84C127.798 130.202 128.515 129.598 129.26 129.03C130.006 128.463 130.777 127.932 131.575 127.441C132.372 126.947 133.193 126.497 134.036 126.084C134.877 125.672 135.738 125.303 136.616 124.976C137.495 124.648 138.387 124.365 139.294 124.126C140.2 123.885 141.117 123.69 142.043 123.541C142.969 123.39 143.898 123.286 144.834 123.228C145.77 123.168 146.707 123.156 147.645 123.19C148.581 123.223 149.514 123.302 150.443 123.427C151.372 123.551 152.295 123.722 153.206 123.938C154.12 124.152 155.019 124.412 155.906 124.714C156.793 125.018 157.663 125.364 158.517 125.752C159.37 126.142 160.201 126.573 161.013 127.042C161.823 127.513 162.608 128.022 163.369 128.57C164.129 129.116 164.862 129.7 165.564 130.32C166.269 130.94 166.94 131.592 167.578 132.277C168.219 132.962 168.821 133.679 169.39 134.422C169.96 135.166 170.49 135.938 170.982 136.733C171.476 137.529 171.929 138.349 172.342 139.191C172.753 140.031 173.123 140.891 173.452 141.768C173.779 142.645 174.063 143.537 174.304 144.442C174.543 145.346 174.739 146.261 174.889 147.185Z" fill="#3F4446"/>
<path fill-rule="evenodd" clip-rule="evenodd" d="M307.379 372.913C324.575 303.2 292.915 232.869 244.006 173.525C251.521 164.399 259.443 155.542 267.663 146.984C349.015 209.92 402.087 292.428 307.379 372.913ZM220.375 147.01C228.053 141.071 235.948 135.321 244.006 129.76C194.528 95.6577 139.374 68.7948 101.549 53.3503C140.103 75.7863 183.253 108.321 220.375 147.01Z" fill="#007FFF"/>
<path fill-rule="evenodd" clip-rule="evenodd" d="M362.046 250.688C382.541 205.275 420.473 168.8 471.356 138.993C422.229 159.674 378.998 184.27 345.555 215.4C352.746 226.875 358.396 238.646 362.046 250.688Z" fill="#007FFF"/>
<path d="M348.033 123.964C348.946 124.18 349.845 124.438 350.732 124.742C351.62 125.046 352.489 125.392 353.343 125.78C354.195 126.169 355.028 126.599 355.837 127.07C356.649 127.541 357.436 128.05 358.195 128.596C358.955 129.144 359.688 129.728 360.392 130.348C361.095 130.966 361.766 131.62 362.406 132.305C363.043 132.99 363.647 133.705 364.217 134.45C364.786 135.194 365.316 135.964 365.81 136.761C366.302 137.557 366.755 138.376 367.168 139.217C367.579 140.059 367.95 140.918 368.278 141.794C368.605 142.672 368.889 143.563 369.13 144.468C369.369 145.374 369.564 146.288 369.715 147.212C369.864 148.137 369.97 149.067 370.028 150.001C370.087 150.936 370.1 151.87 370.066 152.807C370.033 153.743 369.954 154.674 369.829 155.603C369.703 156.531 369.534 157.449 369.318 158.361C369.104 159.273 368.844 160.172 368.538 161.058C368.234 161.943 367.888 162.813 367.5 163.665C367.11 164.517 366.679 165.347 366.209 166.157C365.738 166.965 365.228 167.751 364.679 168.509C364.131 169.27 363.547 170.001 362.927 170.703C362.305 171.406 361.652 172.075 360.967 172.713C360.28 173.353 359.563 173.955 358.818 174.524C358.074 175.092 357.301 175.622 356.503 176.114C355.706 176.606 354.885 177.057 354.044 177.47C353.202 177.881 352.342 178.252 351.463 178.579C350.585 178.905 349.693 179.19 348.786 179.429C347.88 179.669 346.963 179.864 346.037 180.014C345.111 180.165 344.182 180.268 343.244 180.326C342.309 180.386 341.373 180.398 340.435 180.365C339.499 180.332 338.566 180.253 337.637 180.128C336.707 180.003 335.785 179.833 334.873 179.619C333.96 179.402 333.06 179.142 332.173 178.84C331.286 178.536 330.417 178.19 329.563 177.8C328.709 177.412 327.878 176.984 327.067 176.513C326.257 176.042 325.47 175.533 324.711 174.984C323.95 174.436 323.218 173.853 322.514 173.235C321.811 172.615 321.14 171.963 320.5 171.278C319.861 170.593 319.258 169.878 318.689 169.133C318.12 168.388 317.59 167.619 317.096 166.821C316.602 166.024 316.151 165.207 315.738 164.365C315.325 163.524 314.955 162.665 314.628 161.787C314.299 160.91 314.017 160.018 313.776 159.113C313.535 158.208 313.34 157.293 313.191 156.369C313.04 155.445 312.936 154.516 312.876 153.581C312.819 152.647 312.806 151.71 312.84 150.776C312.873 149.84 312.952 148.907 313.077 147.979C313.201 147.052 313.372 146.131 313.588 145.22C313.802 144.31 314.062 143.41 314.366 142.523C314.67 141.64 315.018 140.77 315.406 139.918C315.796 139.066 316.226 138.235 316.697 137.425C317.168 136.615 317.677 135.83 318.227 135.071C318.775 134.312 319.359 133.582 319.979 132.879C320.599 132.176 321.252 131.505 321.939 130.868C322.626 130.23 323.341 129.627 324.087 129.058C324.832 128.491 325.603 127.96 326.403 127.469C327.2 126.975 328.019 126.523 328.86 126.112C329.704 125.7 330.564 125.331 331.443 125.004C332.321 124.675 333.213 124.393 334.12 124.152C335.026 123.913 335.943 123.718 336.869 123.567C337.793 123.418 338.724 123.314 339.66 123.254C340.597 123.196 341.533 123.184 342.469 123.217C343.407 123.251 344.34 123.33 345.269 123.453C346.199 123.579 347.119 123.748 348.033 123.964Z" fill="#007FFF"/>
<path fill-rule="evenodd" clip-rule="evenodd" d="M248.98 442.813C386.488 442.813 497.959 397.132 497.959 340.783C497.959 307.602 459.324 278.146 399.493 259.517C448.644 276.985 479.763 302.823 479.763 331.685C479.763 384.253 376.429 426.858 248.98 426.858C121.503 426.858 18.1955 384.253 18.1955 331.685C18.1955 302.85 49.3147 276.985 98.4678 259.543C38.636 278.146 0 307.602 0 340.783C0 397.132 111.472 442.813 248.98 442.813Z" fill="#3F4446"/>
<path d="M249.949 96.0488C224.961 96.0488 204.506 75.5908 204.506 50.597V45.45C204.506 20.458 224.961 -6.65822e-05 249.949 -6.65822e-05C274.938 -6.65822e-05 295.394 20.458 295.394 45.45V50.597C295.413 75.5908 274.957 96.0488 249.949 96.0488Z" fill="#FF1616"/>
</svg>
